<?xml version="1.0" encoding="UTF-8"?>
<svg version="1.1" xmlns="http://www.w3.org/2000/svg" width="1414" height="259">
<path d="M0 0 C0.96357422 -0.00773437 1.92714844 -0.01546875 2.91992188 -0.0234375 C9.31159943 -0.00619764 15.22421512 0.75806396 21.4375 2.25 C21.4375 2.91 21.4375 3.57 21.4375 4.25 C21.97375 4.311875 22.51 4.37375 23.0625 4.4375 C25.8736915 5.39922341 27.53570475 7.06097768 29.75390625 8.98046875 C35.61215859 13.39794441 43.39097389 14.1489803 50.4375 15.25 C51.02326414 18.59722365 50.88257491 20.59815801 48.94921875 23.4296875 C47.18285419 25.48496055 45.46107206 27.44618237 43.4375 29.25 C42.7775 29.25 42.1175 29.25 41.4375 29.25 C41.25574219 29.93707031 41.07398438 30.62414062 40.88671875 31.33203125 C40.63535156 32.23308594 40.38398437 33.13414063 40.125 34.0625 C39.88136719 34.95582031 39.63773438 35.84914062 39.38671875 36.76953125 C38.38591867 39.38479071 37.72024269 40.64362551 35.4375 42.25 C33.17578125 42.54296875 33.17578125 42.54296875 30.75 42.4375 C29.53763672 42.39689453 29.53763672 42.39689453 28.30078125 42.35546875 C27.68589844 42.32066406 27.07101562 42.28585938 26.4375 42.25 C25.39047814 38.5235915 25.36307943 35.11986958 25.4375 31.25 C24.7775 31.25 24.1175 31.25 23.4375 31.25 C22.4475 26.3 22.4475 26.3 21.4375 21.25 C19.7875 20.92 18.1375 20.59 16.4375 20.25 C14.74933067 18.60511706 13.08396685 16.93662458 11.4375 15.25 C6.91974575 12.53673225 3.29879589 11.80949509 -1.9375 11.5625 C-3.18273437 11.49675781 -4.42796875 11.43101563 -5.7109375 11.36328125 C-6.65195312 11.32589844 -7.59296875 11.28851563 -8.5625 11.25 C-8.8409375 11.85328125 -9.119375 12.4565625 -9.40625 13.078125 C-10.98280262 16.03948736 -13.082008 18.0175572 -15.5625 20.25 C-16.2225 20.25 -16.8825 20.25 -17.5625 20.25 C-17.665625 20.765625 -17.76875 21.28125 -17.875 21.8125 C-18.5625 24.25 -18.5625 24.25 -20.125 27.0625 C-22.90543534 33.40794897 -22.83202 42.07969505 -20.8359375 48.63671875 C-18.82418705 52.40670639 -16.10354257 54.95679823 -12.5625 57.25 C-9.4802451 57.99672258 -6.40755023 58.26075389 -3.25 58.5 C-2.41404297 58.57734375 -1.57808594 58.6546875 -0.71679688 58.734375 C1.3332723 58.9218099 3.38526134 59.08803724 5.4375 59.25 C5.4375 59.91 5.4375 60.57 5.4375 61.25 C7.108125 61.1571875 7.108125 61.1571875 8.8125 61.0625 C13.99841969 61.03461871 18.57513334 62.5760705 23.4375 64.25 C23.4375 64.91 23.4375 65.57 23.4375 66.25 C24.571875 66.518125 25.70625 66.78625 26.875 67.0625 C28.050625 67.454375 29.22625 67.84625 30.4375 68.25 C30.7675 69.24 31.0975 70.23 31.4375 71.25 C33.94197516 72.46869929 33.94197516 72.46869929 36.4375 73.25 C36.4375 73.91 36.4375 74.57 36.4375 75.25 C37.076875 75.518125 37.71625 75.78625 38.375 76.0625 C40.4375 77.25 40.4375 77.25 41.4375 80.25 C42.0975 80.25 42.7575 80.25 43.4375 80.25 C45.05859375 82.48046875 45.05859375 82.48046875 46.875 85.4375 C47.47183594 86.40042969 48.06867188 87.36335938 48.68359375 88.35546875 C49.26238281 89.31066406 49.84117187 90.26585937 50.4375 91.25 C50.97246094 92.07628906 51.50742187 92.90257812 52.05859375 93.75390625 C53.56435447 96.47963175 54.32008813 98.9814023 55.0625 102 C55.69213659 105.41875074 55.69213659 105.41875074 57.4375 108.25 C57.68924572 111.30437375 57.62273241 114.3739842 57.625 117.4375 C57.63724609 118.28892578 57.64949219 119.14035156 57.66210938 120.01757812 C57.67338483 124.87729798 57.22880634 128.67221714 55.4375 133.25 C54.8753483 135.36967291 54.33322265 137.49477097 53.8125 139.625 C53.55210937 140.68460938 53.29171875 141.74421875 53.0234375 142.8359375 C52.83007812 143.63257813 52.63671875 144.42921875 52.4375 145.25 C51.7775 145.25 51.1175 145.25 50.4375 145.25 C50.3446875 146.9515625 50.3446875 146.9515625 50.25 148.6875 C49.58559674 153.87353659 47.59441428 158.09705394 44.4375 162.25 C40.66738549 164.78905671 39.00718449 165.25 34.4375 165.25 C34.4375 165.91 34.4375 166.57 34.4375 167.25 C27.02319409 169.08717315 20.06064474 169.48576736 12.4375 169.25 C12.4375 169.91 12.4375 170.57 12.4375 171.25 C9.95826199 171.27685095 7.4793116 171.29676547 5 171.3125 C4.29294922 171.32087891 3.58589844 171.32925781 2.85742188 171.33789062 C1.05056441 171.34653588 -0.75637603 171.30220011 -2.5625 171.25 C-2.8925 170.92 -3.2225 170.59 -3.5625 170.25 C-5.84786966 169.87592415 -8.14130055 169.55052508 -10.4375 169.25 C-17.24724576 168.35508475 -17.24724576 168.35508475 -20.5625 167.25 C-20.5625 166.59 -20.5625 165.93 -20.5625 165.25 C-21.8928125 165.064375 -21.8928125 165.064375 -23.25 164.875 C-26.2909206 164.3012414 -28.78587139 163.59864818 -31.5625 162.25 C-32.0575 161.26 -32.0575 161.26 -32.5625 160.25 C-33.408125 159.755 -34.25375 159.26 -35.125 158.75 C-36.3315625 158.0075 -36.3315625 158.0075 -37.5625 157.25 C-37.5625 156.59 -37.5625 155.93 -37.5625 155.25 C-38.15933594 155.00507813 -38.75617187 154.76015625 -39.37109375 154.5078125 C-44.66041899 151.47187181 -48.13401165 144.27807822 -50.03125 138.59765625 C-52.17015838 129.14556849 -51.95903935 119.62276693 -49.5625 110.25 C-49.0675 109.755 -49.0675 109.755 -48.5625 109.25 C-48.35104929 107.17073471 -48.19345228 105.0858828 -48.0625 103 C-47.80858531 98.99177532 -47.44682809 95.17052118 -46.5625 91.25 C-39.20998331 91.78410863 -31.88347997 92.38140916 -24.5625 93.25 C-24.2325 95.56 -23.9025 97.87 -23.5625 100.25 C-24.160625 100.476875 -24.75875 100.70375 -25.375 100.9375 C-28.1176169 102.58307014 -28.98218093 104.52035797 -30.5625 107.25 C-31.2225 107.25 -31.8825 107.25 -32.5625 107.25 C-32.706875 108.013125 -32.85125 108.77625 -33 109.5625 C-33.5625 112.25 -33.5625 112.25 -34.5625 115.25 C-35.2225 115.25 -35.8825 115.25 -36.5625 115.25 C-36.5625 118.55 -36.5625 121.85 -36.5625 125.25 C-35.9025 125.25 -35.2425 125.25 -34.5625 125.25 C-34.34335937 126.07242188 -34.12421875 126.89484375 -33.8984375 127.7421875 C-31.98130755 134.49110837 -29.76192157 140.24156221 -25.9296875 146.12890625 C-24.5625 148.25 -24.5625 148.25 -23.75390625 150.4609375 C-22.64915834 152.54757053 -22.64915834 152.54757053 -19.84765625 152.97265625 C-18.78417969 153.08480469 -17.72070312 153.19695312 -16.625 153.3125 C-12.3521366 153.7745715 -10.41848518 154.05516912 -7.5625 157.25 C-5.53172316 158.23628417 -5.53172316 158.23628417 -3.375 158.9375 C-2.65957031 159.18886719 -1.94414063 159.44023437 -1.20703125 159.69921875 C-0.66433594 159.88097656 -0.12164063 160.06273437 0.4375 160.25 C0.4375 160.91 0.4375 161.57 0.4375 162.25 C5.3875 162.25 10.3375 162.25 15.4375 162.25 C15.4375 161.59 15.4375 160.93 15.4375 160.25 C16.46875 159.899375 17.5 159.54875 18.5625 159.1875 C22.4224999 157.55442312 24.53033819 155.23220726 27.078125 151.96875 C28.4375 150.25 28.4375 150.25 30.03515625 148.69921875 C31.89004404 146.78232914 32.56199965 144.74180868 33.4375 142.25 C34.0975 142.25 34.7575 142.25 35.4375 142.25 C35.57027344 141.49074219 35.70304688 140.73148438 35.83984375 139.94921875 C36.01644531 138.95535156 36.19304687 137.96148437 36.375 136.9375 C36.63603516 135.45830078 36.63603516 135.45830078 36.90234375 133.94921875 C37.4375 131.25 37.4375 131.25 38.4375 128.25 C39.0975 128.25 39.7575 128.25 40.4375 128.25 C41.35148898 113.16918186 39.07501443 103.87405956 30.4375 91.25 C30.4375 90.26 30.4375 89.27 30.4375 88.25 C29.57125 87.87875 29.57125 87.87875 28.6875 87.5 C26.12630083 86.07711157 24.5041952 84.3166952 22.4375 82.25 C17.73286021 79.07436814 13.82314131 78.20223616 8.234375 77.71484375 C7.2546875 77.62783203 6.275 77.54082031 5.265625 77.45117188 C4.24984375 77.36416016 3.2340625 77.27714844 2.1875 77.1875 C1.15625 77.09662109 0.125 77.00574219 -0.9375 76.91210938 C-3.47893144 76.68855754 -6.02058391 76.4679601 -8.5625 76.25 C-8.5625 75.59 -8.5625 74.93 -8.5625 74.25 C-9.7071875 74.064375 -9.7071875 74.064375 -10.875 73.875 C-13.5625 73.25 -13.5625 73.25 -16.5625 71.25 C-16.5625 70.59 -16.5625 69.93 -16.5625 69.25 C-17.284375 69.023125 -18.00625 68.79625 -18.75 68.5625 C-23.55713334 66.31917111 -26.3617898 62.98999121 -28.5625 58.25 C-29.2225 57.92 -29.8825 57.59 -30.5625 57.25 C-31.59765625 55 -31.59765625 55 -32.625 52.25 C-33.67678072 48.99402427 -33.67678072 48.99402427 -35.5625 46.25 C-35.64881874 44.90732587 -35.66956473 43.56025678 -35.66015625 42.21484375 C-35.65693359 41.40595703 -35.65371094 40.59707031 -35.65039062 39.76367188 C-35.64201172 38.91353516 -35.63363281 38.06339844 -35.625 37.1875 C-35.62048828 36.33349609 -35.61597656 35.47949219 -35.61132812 34.59960938 C-35.59950373 32.48304337 -35.58156769 30.36651315 -35.5625 28.25 C-34.9025 28.25 -34.2425 28.25 -33.5625 28.25 C-32.5725 22.64 -31.5825 17.03 -30.5625 11.25 C-29.9025 11.25 -29.2425 11.25 -28.5625 11.25 C-28.294375 10.280625 -28.02625 9.31125 -27.75 8.3125 C-27.358125 7.301875 -26.96625 6.29125 -26.5625 5.25 C-25.5725 4.92 -24.5825 4.59 -23.5625 4.25 C-23.2325 3.59 -22.9025 2.93 -22.5625 2.25 C-15.23281424 0.06926705 -7.584882 -0.06112732 0 0 Z " fill="#FBFBFB" transform="translate(672.5625,39.75)"/>
<path d="M0 0 C0 1.32 0 2.64 0 4 C-0.66 4.33 -1.32 4.66 -2 5 C-3.12015656 8.12574807 -3.12233709 11.12153922 -3.11523438 14.41699219 C-3.11463013 15.50627014 -3.11402588 16.5955481 -3.11340332 17.71783447 C-3.10691772 18.89891785 -3.10043213 20.08000122 -3.09375 21.296875 C-3.08837219 23.15188629 -3.08837219 23.15188629 -3.08288574 25.04437256 C-3.0219458 39.44809129 -2.76658867 53.84884426 -2.5 68.25 C-2.45131548 70.96483482 -2.4033848 73.67968278 -2.35546875 76.39453125 C-2.23956707 82.92973605 -2.12093781 89.46488655 -2 96 C-1.34 96 -0.68 96 0 96 C0.99 99.3 1.98 102.6 3 106 C3.66 106 4.32 106 5 106 C6.8759207 109.14090937 7.18257272 111.07883742 6.6875 114.6875 C6.58824219 115.47511719 6.48898437 116.26273437 6.38671875 117.07421875 C6 119 6 119 5 120 C3.2534241 120.12601135 1.5010766 120.17579494 -0.25 120.1875 C-1.68085937 120.20876953 -1.68085937 120.20876953 -3.140625 120.23046875 C-7.07975658 119.91297044 -9.86221327 119.1351651 -12.6953125 116.30859375 C-13.16710938 115.69113281 -13.63890625 115.07367188 -14.125 114.4375 C-16.16628004 111.78383594 -16.70216285 111.09927905 -20 110 C-20.7734375 107.41015625 -20.7734375 107.41015625 -21.375 104.0625 C-22.66938082 97.85084176 -24.53508265 92.35175354 -28 87 C-28.99 86.505 -28.99 86.505 -30 86 C-31.88186002 82.9681144 -32 81.75482645 -32 78 C-32.66 78 -33.32 78 -34 78 C-37 71.375 -37 71.375 -37 68 C-37.99 67.67 -38.98 67.34 -40 67 C-40.70211894 65.34795544 -41.36971413 63.68076231 -42 62 C-42.99 61.505 -42.99 61.505 -44 61 C-44.474375 59.88625 -44.94875 58.7725 -45.4375 57.625 C-46.89182593 54.25096383 -47.57229662 53.41594694 -50 51 C-51.15867023 49.25101201 -52.28071341 47.47747557 -53.375 45.6875 C-55.40653676 42.42668941 -57.4168675 39.33874083 -59.9375 36.4375 C-62 34 -62 34 -62 32 C-62.66 32 -63.32 32 -64 32 C-64.33 31.34 -64.66 30.68 -65 30 C-64.98694824 31.01223633 -64.97389648 32.02447266 -64.96044922 33.06738281 C-64.88311913 42.07720023 -65.07562538 51.04683925 -65.5078125 60.046875 C-65.5568573 61.0821936 -65.6059021 62.11751221 -65.65643311 63.1842041 C-65.86213113 67.46599045 -66.07258729 71.74743897 -66.29638672 76.02832031 C-66.46028235 79.20076959 -66.61006841 82.3736382 -66.7578125 85.546875 C-66.83891769 86.99063507 -66.83891769 86.99063507 -66.92166138 88.46356201 C-67.1446795 93.47099231 -66.98137746 97.29147662 -65 102 C-64.59901675 103.61878424 -64.22105643 105.24359112 -63.875 106.875 C-63.70742187 107.65617187 -63.53984375 108.43734375 -63.3671875 109.2421875 C-63.24601562 109.82226562 -63.12484375 110.40234375 -63 111 C-63.66 111 -64.32 111 -65 111 C-65 111.66 -65 112.32 -65 113 C-65.53109375 113.25394531 -66.0621875 113.50789063 -66.609375 113.76953125 C-71.02525567 115.87743998 -71.02525567 115.87743998 -75 118.6875 C-79.0695654 121.35815229 -84.27296241 121 -89 121 C-88.625 118.0625 -88.625 118.0625 -88 115 C-87.01 114.505 -87.01 114.505 -86 114 C-85.12884713 111.91918209 -85.12884713 111.91918209 -84.4375 109.5 C-83.09111617 105.09111617 -83.09111617 105.09111617 -82 104 C-81.60828301 100.62266363 -81.56363028 97.20865528 -81.4375 93.8125 C-81.37598755 92.15988159 -81.37598755 92.15988159 -81.31323242 90.47387695 C-80.95436778 79.25991415 -80.86114334 68.04324127 -80.82376099 56.82406616 C-80.8162615 54.73520547 -80.80558697 52.64635374 -80.79171753 50.55752563 C-80.77380857 47.58384129 -80.76968972 44.61045088 -80.76953125 41.63671875 C-80.76239105 40.73871552 -80.75525085 39.84071228 -80.74789429 38.91549683 C-80.7641104 34.43537683 -81.02657941 31.10545689 -83 27 C-83.3298445 25.60513282 -83.61541474 24.19890519 -83.8515625 22.78515625 C-84.04492188 21.63176758 -84.04492188 21.63176758 -84.2421875 20.45507812 C-84.43167969 19.27075195 -84.43167969 19.27075195 -84.625 18.0625 C-84.7590625 17.27681641 -84.893125 16.49113281 -85.03125 15.68164062 C-85.73252819 11.40599041 -86.15359666 7.34957828 -86 3 C-77.73252149 2.76341079 -70.07953776 3.18655665 -62 5 C-61.67 7.64 -61.34 10.28 -61 13 C-60.34 13 -59.68 13 -59 13 C-57.515 17.455 -57.515 17.455 -56 22 C-55.34 22 -54.68 22 -54 22 C-53.319375 23.4540625 -53.319375 23.4540625 -52.625 24.9375 C-51.34213779 28.07079582 -51.34213779 28.07079582 -49 29 C-46.9904432 31.93704456 -46 33.39222485 -46 37 C-45.360625 37.268125 -44.72125 37.53625 -44.0625 37.8125 C-42 39 -42 39 -41 42 C-40.34 42.28875 -39.68 42.5775 -39 42.875 C-37 44 -37 44 -36.25 46.625 C-36.1675 47.40875 -36.085 48.1925 -36 49 C-35.34 49 -34.68 49 -34 49 C-33.566875 50.093125 -33.13375 51.18625 -32.6875 52.3125 C-31.47885842 55.15166749 -30.29136354 56.90788546 -28 59 C-26.41086442 61.67643887 -26 62.8180056 -26 66 C-25.01 66.33 -24.02 66.66 -23 67 C-21.5 69.25 -21.5 69.25 -20 72 C-19.00430996 73.66924507 -18.00492172 75.33629627 -17 77 C-17.03029297 75.81148438 -17.06058594 74.62296875 -17.09179688 73.3984375 C-17.20564382 68.91053127 -17.31681176 64.42256171 -17.42724609 59.93457031 C-17.47503895 58.00681821 -17.52352016 56.07908303 -17.57275391 54.15136719 C-17.87155495 42.43104856 -18.07558765 30.72448467 -18 19 C-18.66 19 -19.32 19 -20 19 C-20.66 14.05 -21.32 9.1 -22 4 C-20.68 3.67 -19.36 3.34 -18 3 C-18 2.34 -18 1.68 -18 1 C-12.09267705 -1.42351711 -6.08787705 -2.02929235 0 0 Z " fill="#FAFBFB" transform="translate(1130,74)"/>
<path d="M0 0 C9.1994382 -0.63202247 9.1994382 -0.63202247 12.375 1.875 C12.91125 2.57625 13.4475 3.2775 14 4 C21.73653663 8.68672152 32.28991226 8.17912362 41.0625 8.1875 C41.88371338 8.18830566 42.70492676 8.18911133 43.55102539 8.18994141 C47.82421241 8.18401626 47.82421241 8.18401626 52.02124023 7.4934082 C55.00689257 6.74892907 57.93951928 6.9411446 61 7 C61 6.34 61 5.68 61 5 C62.4370809 4.94577053 63.87475462 4.90710277 65.3125 4.875 C66.11300781 4.85179687 66.91351563 4.82859375 67.73828125 4.8046875 C70 5 70 5 73 7 C73.546875 10.22265625 73.546875 10.22265625 73.75 14.0625 C73.86601562 15.96708984 73.86601562 15.96708984 73.984375 17.91015625 C73.99210937 19.43962891 73.99210937 19.43962891 74 21 C73 22 73 22 70.70703125 22.1328125 C65.69843099 22.11929401 60.92110596 22.06402291 56 21 C56 20.34 56 19.68 56 19 C54.71029297 18.90912109 54.71029297 18.90912109 53.39453125 18.81640625 C52.21246094 18.73261719 51.03039062 18.64882813 49.8125 18.5625 C48.52472656 18.47226562 47.23695313 18.38203125 45.91015625 18.2890625 C43.54160102 18.11396451 41.17392966 17.92517845 38.80859375 17.7109375 C29.52980063 16.88141576 20.30628383 16.90599713 11 17 C10.23908768 32.7909544 9.58408759 48.41850987 10.64404297 64.20825195 C11.0484775 70.51440824 11 76.63119931 11 83 C19.25 83 27.5 83 36 83 C36 82.34 36 81.68 36 81 C51.86046512 78.95348837 51.86046512 78.95348837 58 81 C59.36623674 83.73247348 59.128426 85.98198902 59 89 C57.17466779 90.82533221 54.72190886 90.12341006 52.30078125 90.1328125 C50 90 50 90 47.23291016 89.47045898 C43.9842519 88.99770831 41.23578421 89.05314928 37.97265625 89.33984375 C36.28946289 89.4800293 36.28946289 89.4800293 34.57226562 89.62304688 C33.41404297 89.72681641 32.25582031 89.83058594 31.0625 89.9375 C17.05437188 91.14981706 17.05437188 91.14981706 11 91 C11.01571045 91.72888428 11.0314209 92.45776855 11.04760742 93.20874023 C11.57396649 121.40781656 11.57396649 121.40781656 8 135 C7.67 135.33 7.34 135.66 7 136 C6.76321284 138.69235776 6.57801975 141.36498156 6.4375 144.0625 C6.39431641 144.82111328 6.35113281 145.57972656 6.30664062 146.36132812 C6.20026367 148.24065438 6.09960066 150.12030244 6 152 C8.31 152.33 10.62 152.66 13 153 C13 153.66 13 154.32 13 155 C13.88260498 155.01981934 14.76520996 155.03963867 15.67456055 155.06005859 C18.96421957 155.13837866 22.25343964 155.22507855 25.54272461 155.31738281 C26.9635373 155.35555149 28.38444263 155.39042513 29.80541992 155.421875 C31.85368855 155.46779065 33.90132608 155.52573805 35.94921875 155.5859375 C37.17987061 155.6173584 38.41052246 155.6487793 39.6784668 155.68115234 C42.85364055 155.98595035 45.13426057 156.64442201 48 158 C48 158.66 48 159.32 48 160 C48.62648437 159.7834375 49.25296875 159.566875 49.8984375 159.34375 C50.71570313 159.0653125 51.53296875 158.786875 52.375 158.5 C53.18710938 158.2215625 53.99921875 157.943125 54.8359375 157.65625 C57 157 57 157 59 157 C59 155.68 59 154.36 59 153 C61.97 153 64.94 153 68 153 C68 153.66 68 154.32 68 155 C68.928125 155.3403125 68.928125 155.3403125 69.875 155.6875 C72.61410209 157.37929835 73.05024472 158.99244161 74 162 C74.66 162 75.32 162 76 162 C74.54102682 165.40427076 72.89759774 167.6732145 70 170 C66.80078125 170.42578125 66.80078125 170.42578125 63.3125 170.3125 C62.15363281 170.28800781 60.99476563 170.26351562 59.80078125 170.23828125 C57 170 57 170 56 169 C53.73757951 168.83989434 51.47028196 168.74824381 49.203125 168.68359375 C48.50588821 168.66258606 47.80865143 168.64157837 47.09028625 168.61993408 C44.81031076 168.55323464 42.53023847 168.49446357 40.25 168.4375 C39.48033905 168.41765045 38.7106781 168.3978009 37.91769409 168.37734985 C34.04600761 168.27836117 30.1742398 168.18572722 26.30224609 168.09960938 C22.59281682 168.01655253 18.88449192 167.90759964 15.17578125 167.796875 C13.30472892 167.75834966 11.43363633 167.7217032 9.5625 167.6875 C8.29744629 167.64290649 8.29744629 167.64290649 7.00683594 167.59741211 C4.45550629 167.52379465 4.45550629 167.52379465 1 168 C-0.70103264 169.94133937 -0.70103264 169.94133937 -2 172 C-4.6640625 172.42578125 -4.6640625 172.42578125 -7.625 172.3125 C-8.60726562 172.28800781 -9.58953125 172.26351562 -10.6015625 172.23828125 C-13 172 -13 172 -14 171 C-13.78633888 166.29945543 -13.03548394 161.58571459 -12 157 C-11.34 157 -10.68 157 -10 157 C-10.061875 155.88625 -10.061875 155.88625 -10.125 154.75 C-9.99120845 151.80658586 -9.29378287 150.58756573 -8 148 C-7.61250787 145.67504723 -7.27017161 143.34148732 -7 141 C-6.34 141 -5.68 141 -5 141 C-4.38282716 110.02551386 -3.89298875 79.05563754 -3.87661743 48.07448959 C-3.87500214 46.06516787 -3.87144647 44.05585755 -3.86743164 42.04653931 C-3.86158443 38.29271777 -3.86299575 34.53897851 -3.8671875 30.78515625 C-3.86520355 29.67533386 -3.8632196 28.56551147 -3.86117554 27.42205811 C-3.8760874 22.50519757 -3.95063207 17.8305313 -5 13 C-5.66 13 -6.32 13 -7 13 C-8.60355101 9.49223216 -9.22036864 6.85645121 -9 3 C-4.545 2.505 -4.545 2.505 0 2 C0 1.34 0 0.68 0 0 Z " fill="#FAFAFA" transform="translate(147,37)"/>
<path d="M0 0 C6.27 0 12.54 0 19 0 C19 0.66 19 1.32 19 2 C20.08667969 2.07347656 20.08667969 2.07347656 21.1953125 2.1484375 C26.41458867 2.55206152 31.09813658 3.01275807 36 5 C36 5.66 36 6.32 36 7 C36.7425 7.20625 37.485 7.4125 38.25 7.625 C41.8424014 9.4212007 43.08309537 11.52117309 45 15 C45 15.99 45 16.98 45 18 C45.66 18 46.32 18 47 18 C47.50904657 19.87256417 48.00682455 21.74819341 48.5 23.625 C48.7784375 24.66914062 49.056875 25.71328125 49.34375 26.7890625 C49.99118596 29.95687418 50.1161292 32.77741467 50 36 C50.66 36 51.32 36 52 36 C53.11165232 40.4378561 53.11527763 44.76956386 53.0625 49.3125 C53.05798828 50.05306641 53.05347656 50.79363281 53.04882812 51.55664062 C53.03712175 53.37112899 53.01918898 55.18557534 53 57 C51.515 57.495 51.515 57.495 50 58 C49.86722656 58.55171875 49.73445312 59.1034375 49.59765625 59.671875 C48.72050151 63.08876537 46.57203975 65.51726611 44.4375 68.25 C44.01275391 68.80429688 43.58800781 69.35859375 43.15039062 69.9296875 C42.10601659 71.29089411 41.05377536 72.64605833 40 74 C44.29754307 79.06889696 48.72140209 83.99187387 53.2421875 88.86328125 C55 91 55 91 55 93 C57.64 93.33 60.28 93.66 63 94 C63.33 95.65 63.66 97.3 64 99 C60.78817851 100.90608098 58.46117397 101.22266247 54.75 101.125 C53.85796875 101.10695313 52.9659375 101.08890625 52.046875 101.0703125 C51.37140625 101.04710937 50.6959375 101.02390625 50 101 C50 101.66 50 102.32 50 103 C46.7 103 43.4 103 40 103 C39.67 101.68 39.34 100.36 39 99 C37.515 98.505 37.515 98.505 36 98 C35.24313989 96.32174497 34.49471356 94.63798597 33.828125 92.921875 C32.57281018 90.00859722 30.82857208 87.5852226 29 85 C25.87802522 86.3089572 25.87802522 86.3089572 24 89 C22.01833966 90.0358679 20.01526169 91.03112419 18 92 C16.84371094 92.77730469 16.84371094 92.77730469 15.6640625 93.5703125 C10.99676443 96.07505017 6.15577458 95.61704749 1 95 C-1.88336027 94.0141452 -3.47635131 92.86750003 -6 91 C-6.85078125 90.38705078 -6.85078125 90.38705078 -7.71875 89.76171875 C-10.11631597 87.93527109 -11.79480212 86.54230869 -12.875 83.6875 C-12.91625 83.130625 -12.9575 82.57375 -13 82 C-13.61875 81.95875 -14.2375 81.9175 -14.875 81.875 C-15.57625 81.58625 -16.2775 81.2975 -17 81 C-18.25 77.9375 -18.25 77.9375 -19 75 C-19.66 75 -20.32 75 -21 75 C-21.19335938 74.43410156 -21.38671875 73.86820312 -21.5859375 73.28515625 C-21.84632813 72.55167969 -22.10671875 71.81820312 -22.375 71.0625 C-22.63023437 70.33160156 -22.88546875 69.60070312 -23.1484375 68.84765625 C-23.85271413 66.81317884 -23.85271413 66.81317884 -26 66 C-30.1122654 60.23085096 -29.37362227 53.89587558 -29.25 47.125 C-29.23759277 45.92222412 -29.22518555 44.71944824 -29.21240234 43.48022461 C-28.85280757 16.45794857 -28.85280757 16.45794857 -23.9375 10.5 C-17.38296123 4.92166913 -8.57238446 2 0 2 C0 1.34 0 0.68 0 0 Z M-5 10 C-5 10.66 -5 11.32 -5 12 C-6.0828125 12.0928125 -6.0828125 12.0928125 -7.1875 12.1875 C-11.09463435 13.3162277 -12.60355847 14.71345162 -15 18 C-15.40846482 21.0481687 -15.29948476 23.94525548 -15 27 C-14.04287109 27.43119141 -14.04287109 27.43119141 -13.06640625 27.87109375 C-10.55033505 29.24565817 -10.2188294 30.48108591 -9 33 C-8.01 33.33 -7.02 33.66 -6 34 C-5.731875 34.70125 -5.46375 35.4025 -5.1875 36.125 C-2.17789211 43.4114191 4.11792706 48.43329089 11 52 C13.67112956 52.68005892 13.67112956 52.68005892 16 53 C16 53.66 16 54.32 16 55 C17.093125 55.433125 18.18625 55.86625 19.3125 56.3125 C22.14431427 57.51473906 23.91710484 58.70881532 26 61 C26.99 61.33 27.98 61.66 29 62 C30.1875 64.0625 30.1875 64.0625 31 66 C31.66 64.68 32.32 63.36 33 62 C33.66 62 34.32 62 35 62 C35.66 60.02 36.32 58.04 37 56 C37.66 56 38.32 56 39 56 C39.19561869 53.9174133 39.38119313 51.83388144 39.5625 49.75 C39.66691406 48.58984375 39.77132812 47.4296875 39.87890625 46.234375 C39.98198087 43.48128523 39.86213473 41.580018 39 39 C38.34 39 37.68 39 37 39 C36.773125 38.030625 36.54625 37.06125 36.3125 36.0625 C34.97765027 31.30770682 32.50824121 27.22188693 30 23 C29.34 23 28.68 23 28 23 C27.90589844 22.41734375 27.81179688 21.8346875 27.71484375 21.234375 C26.84037621 18.50106664 25.60942413 17.24160186 23.5625 15.25 C22.63630859 14.32960938 22.63630859 14.32960938 21.69140625 13.390625 C20.10746481 11.78830608 20.10746481 11.78830608 18 12 C18 11.34 18 10.68 18 10 C10.51275269 6.59424852 2.61769328 7.29148683 -5 10 Z M-14 47 C-13.67 49.97 -13.34 52.94 -13 56 C-12.34 56 -11.68 56 -11 56 C-10.938125 56.9075 -10.87625 57.815 -10.8125 58.75 C-9.99598808 64.43059009 -7.80479121 70.01790457 -5 75 C-2.95956255 76.38564129 -2.95956255 76.38564129 -1 77 C-1 77.66 -1 78.32 -1 79 C-0.030625 79.45375 0.93875 79.9075 1.9375 80.375 C5 82 5 82 6 84 C11.55387996 84.57852916 14.70978194 83.59649898 19.32421875 80.43359375 C21.58811284 78.49688249 22.53460391 76.9475086 23 74 C20.83330307 70.7499546 19.3510269 69.8703406 16 68 C11.11111111 65.22222222 11.11111111 65.22222222 10 63 C8.88625 62.525625 7.7725 62.05125 6.625 61.5625 C3.24355493 60.10498057 2.42320211 59.42905526 0 57 C-1.81145206 55.7996402 -3.64723995 54.63556261 -5.5 53.5 C-8.80141311 51.47655326 -11.23935022 49.76064978 -14 47 Z " fill="#FBFBFB" transform="translate(834,94)"/>
<path d="M0 0 C0.66 0.99 1.32 1.98 2 3 C4.05003955 4.19232613 4.05003955 4.19232613 6 5 C6 5.66 6 6.32 6 7 C6.71027344 7.06058594 7.42054688 7.12117188 8.15234375 7.18359375 C9.07144531 7.26738281 9.99054688 7.35117188 10.9375 7.4375 C12.31228516 7.55931641 12.31228516 7.55931641 13.71484375 7.68359375 C16 8 16 8 17 9 C17.375 11.25 17.375 11.25 17 14 C15.37660195 15.70884005 13.70680947 17.37446717 12 19 C10.680982 21.66533035 10.680982 21.66533035 10 24 C9.34 24 8.68 24 8 24 C7.67 25.32 7.34 26.64 7 28 C4.03 28 1.06 28 -2 28 C-2.19916016 26.98679687 -2.19916016 26.98679687 -2.40234375 25.953125 C-2.57894531 25.06109375 -2.75554687 24.1690625 -2.9375 23.25 C-3.11152344 22.36828125 -3.28554688 21.4865625 -3.46484375 20.578125 C-3.64144531 19.72734375 -3.81804687 18.8765625 -4 18 C-4.13792969 17.25363281 -4.27585937 16.50726563 -4.41796875 15.73828125 C-4.61003906 15.16464844 -4.80210937 14.59101562 -5 14 C-7.39068734 12.89363605 -7.39068734 12.89363605 -10 12 C-10.45246094 11.48953125 -10.90492188 10.9790625 -11.37109375 10.453125 C-13.54779493 8.51131963 -14.82042143 8.68784441 -17.6875 8.8125 C-18.89986328 8.85310547 -18.89986328 8.85310547 -20.13671875 8.89453125 C-20.75160156 8.92933594 -21.36648437 8.96414062 -22 9 C-22.268125 9.61875 -22.53625 10.2375 -22.8125 10.875 C-24 13 -24 13 -27 15 C-28.15921927 18.06891577 -28.16469629 21.11862951 -28.1875 24.375 C-28.20876953 25.74785156 -28.20876953 25.74785156 -28.23046875 27.1484375 C-27.97181471 30.34873324 -27.1190349 33.00116338 -26 36 C-25.44538086 36.05534912 -24.89076172 36.11069824 -24.31933594 36.16772461 C-21.7959083 36.42128107 -19.27296117 36.67934505 -16.75 36.9375 C-15.87730469 37.02451172 -15.00460937 37.11152344 -14.10546875 37.20117188 C-13.26113281 37.28818359 -12.41679687 37.37519531 -11.546875 37.46484375 C-10.38430176 37.58267212 -10.38430176 37.58267212 -9.19824219 37.70288086 C-7.07376962 37.99002914 -5.06703475 38.43794772 -3 39 C-3 39.66 -3 40.32 -3 41 C-1.88625 41.185625 -1.88625 41.185625 -0.75 41.375 C3.98208729 42.45047438 6.56904395 44.28755684 9.75 47.9375 C10.36359375 48.62714844 10.9771875 49.31679687 11.609375 50.02734375 C13 52 13 52 13 55 C14.485 55.495 14.485 55.495 16 56 C21.73681988 64.79107046 22.28098164 74.8766535 21 85 C19.99910046 89.48775419 18.62351934 93.70419152 17 98 C16.66871094 99.05316406 16.33742188 100.10632813 15.99609375 101.19140625 C14.6652126 104.94396918 13.16368362 106.57675297 10 109 C4.12892295 111.20022888 -1.80835399 111.19656019 -8 111 C-8 111.66 -8 112.32 -8 113 C-9.81242052 113.02687279 -11.62495233 113.04633715 -13.4375 113.0625 C-14.44683594 113.07410156 -15.45617187 113.08570313 -16.49609375 113.09765625 C-19 113 -19 113 -20 112 C-22.47686461 111.4619326 -24.94681284 110.9645603 -27.4375 110.5 C-34.73885587 109.13057207 -34.73885587 109.13057207 -37 108 C-37 107.34 -37 106.68 -37 106 C-37.73734375 105.77054687 -38.4746875 105.54109375 -39.234375 105.3046875 C-42.54934013 103.74084802 -44.01021377 102.00594641 -46.25 99.125 C-46.93578125 98.26132813 -47.6215625 97.39765625 -48.328125 96.5078125 C-54.96064508 86.55903238 -50.54595119 69.27716181 -49 58 C-45.37 58 -41.74 58 -38 58 C-38 58.66 -38 59.32 -38 60 C-35.69 60 -33.38 60 -31 60 C-30.25 61.625 -30.25 61.625 -30 64 C-31.8125 67.25 -31.8125 67.25 -34 70 C-34.66 70 -35.32 70 -36 70 C-37.56438957 76.45310697 -37.06185003 82.49616858 -36 89 C-35.34 89 -34.68 89 -34 89 C-33.88785156 89.62648438 -33.77570313 90.25296875 -33.66015625 90.8984375 C-33.02268299 93.53999334 -32.38047449 95.65190321 -31 98 C-28.06017116 99.41243173 -25.21568774 99.67377081 -22 100 C-20.515 100.495 -20.515 100.495 -19 101 C-19 101.66 -19 102.32 -19 103 C-11.97217958 104.0390717 -11.97217958 104.0390717 -5 103 C-5 102.34 -5 101.68 -5 101 C-2.625 98.375 -2.625 98.375 0 96 C0.66 96 1.32 96 2 96 C2.99 92.04 3.98 88.08 5 84 C5.66 84 6.32 84 7 84 C8.23496837 73.12051672 4.88423837 65.35061242 -1.73046875 56.75 C-3 55 -3 55 -3 53 C-4.26714844 52.91363281 -5.53429687 52.82726562 -6.83984375 52.73828125 C-17.80332711 51.87125444 -25.52409314 50.7914185 -34 43.375 C-36 41 -36 41 -37 38 C-37.66 37.67 -38.32 37.34 -39 37 C-43.56198668 28.30973665 -41.40976179 16.14418537 -39 7 C-38.34 7 -37.68 7 -37 7 C-36.87625 6.401875 -36.7525 5.80375 -36.625 5.1875 C-36 3 -36 3 -34 0 C-23.63618 -3.58895248 -10.36729755 -3.28297756 0 0 Z " fill="#FBFBFB" transform="translate(277,89)"/>
<path d="M0 0 C1.23556641 0.01740234 1.23556641 0.01740234 2.49609375 0.03515625 C3.32238281 0.04417969 4.14867187 0.05320312 5 0.0625 C5.63808594 0.07410156 6.27617187 0.08570312 6.93359375 0.09765625 C10.57197436 7.28207279 11.83415347 14.51299704 12.89379883 22.4074707 C13.47018069 26.60902493 14.17062798 30.20094222 15.93359375 34.09765625 C17.26817695 38.44740889 18.2200663 42.51409551 17.93359375 47.09765625 C18.59359375 47.09765625 19.25359375 47.09765625 19.93359375 47.09765625 C20.42859375 51.05765625 20.42859375 51.05765625 20.93359375 55.09765625 C19.94359375 55.09765625 18.95359375 55.09765625 17.93359375 55.09765625 C18.42859375 59.55265625 18.42859375 59.55265625 18.93359375 64.09765625 C20.91359375 64.09765625 22.89359375 64.09765625 24.93359375 64.09765625 C24.93359375 64.75765625 24.93359375 65.41765625 24.93359375 66.09765625 C25.78824219 66.08605469 26.64289063 66.07445312 27.5234375 66.0625 C28.62816406 66.05347656 29.73289062 66.04445313 30.87109375 66.03515625 C31.97324219 66.02355469 33.07539063 66.01195312 34.2109375 66 C36.93359375 66.09765625 36.93359375 66.09765625 37.93359375 67.09765625 C37.97423207 68.7638274 37.97631475 70.4315372 37.93359375 72.09765625 C35.95359375 72.09765625 33.97359375 72.09765625 31.93359375 72.09765625 C31.60359375 73.74765625 31.27359375 75.39765625 30.93359375 77.09765625 C29.94359375 77.09765625 28.95359375 77.09765625 27.93359375 77.09765625 C27.93359375 77.75765625 27.93359375 78.41765625 27.93359375 79.09765625 C28.59359375 79.09765625 29.25359375 79.09765625 29.93359375 79.09765625 C30.92359375 83.05765625 31.91359375 87.01765625 32.93359375 91.09765625 C33.59359375 91.09765625 34.25359375 91.09765625 34.93359375 91.09765625 C35.32546875 92.23203125 35.71734375 93.36640625 36.12109375 94.53515625 C37.62999851 98.62660954 39.65208576 102.22159469 41.9453125 105.921875 C43.10177084 108.46791174 43.11280338 110.33201582 42.93359375 113.09765625 C39.80861312 113.12661601 36.68366685 113.14444108 33.55859375 113.16015625 C32.22441406 113.17272461 32.22441406 113.17272461 30.86328125 113.18554688 C30.0125 113.18876953 29.16171875 113.19199219 28.28515625 113.1953125 C27.10687256 113.20316772 27.10687256 113.20316772 25.90478516 113.21118164 C23.93359375 113.09765625 23.93359375 113.09765625 21.93359375 112.09765625 C21.93359375 111.43765625 21.93359375 110.77765625 21.93359375 110.09765625 C21.27359375 110.09765625 20.61359375 110.09765625 19.93359375 110.09765625 C19.93359375 108.11765625 19.93359375 106.13765625 19.93359375 104.09765625 C20.59359375 104.09765625 21.25359375 104.09765625 21.93359375 104.09765625 C21.50305485 100.0505906 20.79981745 96.49891163 19.43359375 92.66015625 C17.95106094 88.45120943 17.33706554 84.53584597 16.93359375 80.09765625 C16.27359375 80.09765625 15.61359375 80.09765625 14.93359375 80.09765625 C14.93359375 79.10765625 14.93359375 78.11765625 14.93359375 77.09765625 C7.34359375 77.09765625 -0.24640625 77.09765625 -8.06640625 77.09765625 C-8.06640625 77.75765625 -8.06640625 78.41765625 -8.06640625 79.09765625 C-9.05640625 79.09765625 -10.04640625 79.09765625 -11.06640625 79.09765625 C-11.06640625 82.06765625 -11.06640625 85.03765625 -11.06640625 88.09765625 C-10.40640625 88.09765625 -9.74640625 88.09765625 -9.06640625 88.09765625 C-7.94103842 93.44315344 -6.53174588 101.0283355 -9.06640625 106.09765625 C-9.72640625 106.09765625 -10.38640625 106.09765625 -11.06640625 106.09765625 C-11.15728516 107.27134766 -11.15728516 107.27134766 -11.25 108.46875 C-11.33378906 109.48066406 -11.41757812 110.49257812 -11.50390625 111.53515625 C-11.58511719 112.54449219 -11.66632813 113.55382812 -11.75 114.59375 C-12.06640625 117.09765625 -12.06640625 117.09765625 -13.06640625 118.09765625 C-15.92908192 118.17090793 -18.76712525 118.1900383 -21.62890625 118.16015625 C-22.43521484 118.15564453 -23.24152344 118.15113281 -24.07226562 118.14648438 C-26.07034381 118.13466143 -28.06838408 118.11672539 -30.06640625 118.09765625 C-30.39640625 116.77765625 -30.72640625 115.45765625 -31.06640625 114.09765625 C-30.42727295 113.89277588 -29.78813965 113.68789551 -29.12963867 113.47680664 C-26.78689473 112.23970649 -26.78689473 112.23970649 -26.3527832 109.40795898 C-26.20522583 107.73648804 -26.20522583 107.73648804 -26.0546875 106.03125 C-25.93673828 104.82404297 -25.81878906 103.61683594 -25.69726562 102.37304688 C-25.53967773 100.47329102 -25.53967773 100.47329102 -25.37890625 98.53515625 C-25.14917936 96.03354464 -24.91628393 93.53222126 -24.6796875 91.03125 C-24.58469971 89.91806396 -24.48971191 88.80487793 -24.3918457 87.65795898 C-24.06640625 85.09765625 -24.06640625 85.09765625 -23.06640625 84.09765625 C-22.87824638 81.44848481 -22.73860219 78.8127271 -22.62890625 76.16015625 C-22.35464393 70.5360354 -21.8271244 65.26820838 -20.53515625 59.77734375 C-19.76977345 55.40190541 -19.64323119 50.97584132 -19.49609375 46.54077148 C-19.33924548 42.88736544 -19.1464896 41.21778128 -17.06640625 38.09765625 C-17.72640625 38.09765625 -18.38640625 38.09765625 -19.06640625 38.09765625 C-19.06640625 34.79765625 -19.06640625 31.49765625 -19.06640625 28.09765625 C-18.40640625 28.09765625 -17.74640625 28.09765625 -17.06640625 28.09765625 C-17.06640625 23.80765625 -17.06640625 19.51765625 -17.06640625 15.09765625 C-17.72640625 15.09765625 -18.38640625 15.09765625 -19.06640625 15.09765625 C-19.75390625 12.78515625 -19.75390625 12.78515625 -20.06640625 10.09765625 C-18.75390625 8.28515625 -18.75390625 8.28515625 -17.06640625 7.09765625 C-16.40640625 7.09765625 -15.74640625 7.09765625 -15.06640625 7.09765625 C-15.06640625 6.43765625 -15.06640625 5.77765625 -15.06640625 5.09765625 C-14.21175781 4.82050781 -13.35710937 4.54335937 -12.4765625 4.2578125 C-11.37183594 3.89558594 -10.26710938 3.53335938 -9.12890625 3.16015625 C-8.02675781 2.80050781 -6.92460937 2.44085938 -5.7890625 2.0703125 C-3.28763718 1.17668997 -2.5123514 0.11873116 0 0 Z M-2.06640625 23.09765625 C-3.85050427 26.16012372 -4.29520646 28.31844898 -4.19140625 31.84765625 C-4.17335938 32.646875 -4.1553125 33.44609375 -4.13671875 34.26953125 C-4.11351562 34.8728125 -4.0903125 35.47609375 -4.06640625 36.09765625 C-4.72640625 36.09765625 -5.38640625 36.09765625 -6.06640625 36.09765625 C-6.06640625 39.72765625 -6.06640625 43.35765625 -6.06640625 47.09765625 C-7.38640625 47.09765625 -8.70640625 47.09765625 -10.06640625 47.09765625 C-10.06640625 49.73765625 -10.06640625 52.37765625 -10.06640625 55.09765625 C-9.40640625 55.42765625 -8.74640625 55.75765625 -8.06640625 56.09765625 C-7.65234375 58.6015625 -7.65234375 58.6015625 -7.44140625 61.66015625 C-7.36664063 62.67207031 -7.291875 63.68398437 -7.21484375 64.7265625 C-7.16585938 65.50902344 -7.116875 66.29148438 -7.06640625 67.09765625 C-0.6495195 67.20115442 5.56053777 66.84273169 11.93359375 66.09765625 C11.93359375 64.77765625 11.93359375 63.45765625 11.93359375 62.09765625 C11.27359375 62.09765625 10.61359375 62.09765625 9.93359375 62.09765625 C9.80984375 61.14890625 9.68609375 60.20015625 9.55859375 59.22265625 C8.56428427 52.38677855 7.39151723 45.80698778 4.7890625 39.38671875 C3.24599444 35.25777865 2.10946906 30.99399116 0.8984375 26.7578125 C0.22835361 23.95822629 0.22835361 23.95822629 -2.06640625 23.09765625 Z M-8.06640625 67.09765625 C-7.06640625 69.09765625 -7.06640625 69.09765625 -7.06640625 69.09765625 Z " fill="#FBFBFB" transform="translate(403.06640625,74.90234375)"/>
<path d="M0 0 C3.96 0 7.92 0 12 0 C12 0.66 12 1.32 12 2 C12.969375 2.268125 13.93875 2.53625 14.9375 2.8125 C15.948125 3.204375 16.95875 3.59625 18 4 C18.33 4.99 18.66 5.98 19 7 C19.66 7 20.32 7 21 7 C22.60725635 10.21451269 22.05748185 13.43612536 22 17 C23.32 16.67 24.64 16.34 26 16 C26 15.34 26 14.68 26 14 C29.46153846 11 29.46153846 11 32 11 C32.66 9.68 33.32 8.36 34 7 C34.99 7 35.98 7 37 7 C37 6.34 37 5.68 37 5 C41.23740587 2.17506275 45.02465933 2.2211128 50 3 C53.86484306 5.81811473 55.56042195 8.51003849 57 13 C57.65343552 22.49142782 58.04165483 33.87503552 55 43 C54.34 43 53.68 43 53 43 C52.731875 43.639375 52.46375 44.27875 52.1875 44.9375 C51 47 51 47 48 48 C47.67 48.99 47.34 49.98 47 51 C45.66666667 51.66666667 44.33333333 52.33333333 43 53 C41.98758315 54.32392972 40.98560611 55.65599167 40 57 C39.34 57 38.68 57 38 57 C37.73832031 57.59941406 37.47664063 58.19882813 37.20703125 58.81640625 C35.92779812 61.13061764 34.73749558 62.29659445 32.6875 63.9375 C30.38606201 65.82180235 28.23825441 67.72048719 26.1875 69.875 C24 72 24 72 22 72 C21.67 74.64 21.34 77.28 21 80 C19.35 80 17.7 80 16 80 C16.70079254 83.45411499 16.70079254 83.45411499 18 87 C18.66491455 87.31412842 19.3298291 87.62825684 20.01489258 87.9519043 C22 89 22 89 22.71362305 90.98364258 C22.86118042 92.17703247 22.86118042 92.17703247 23.01171875 93.39453125 C23.18864258 94.70454102 23.18864258 94.70454102 23.36914062 96.04101562 C23.47419922 96.95560547 23.57925781 97.87019531 23.6875 98.8125 C23.91982517 100.61077385 24.15287624 102.40895409 24.38671875 104.20703125 C24.48170654 105.0060083 24.57669434 105.80498535 24.67456055 106.62817383 C25.01531169 109.11159267 25.48539131 111.54724053 26 114 C23.36 114.33 20.72 114.66 18 115 C17.67 115.99 17.34 116.98 17 118 C15.56465159 118.2226746 14.12654475 118.42761906 12.6875 118.625 C11.48673828 118.79902344 11.48673828 118.79902344 10.26171875 118.9765625 C8 119 8 119 5 117 C5.33 115.35 5.66 113.7 6 112 C6.66 112 7.32 112 8 112 C8.02917234 108.12501596 8.04685673 104.25006042 8.0625 100.375 C8.07087891 99.28058594 8.07925781 98.18617188 8.08789062 97.05859375 C8.09111328 95.99511719 8.09433594 94.93164062 8.09765625 93.8359375 C8.10289307 92.86188965 8.10812988 91.8878418 8.11352539 90.88427734 C7.99414506 87.85124679 7.55866724 84.98084732 7 82 C6.505 82.99 6.01 83.98 5.5 85 C3 88 3 88 0.953125 88.3984375 C-1.25 88.375 -1.25 88.375 -5 88 C-5.75 85.75 -5.75 85.75 -6 83 C-4.25 81 -4.25 81 -2 79 C-1.46375 78.0925 -0.9275 77.185 -0.375 76.25 C0.07875 75.5075 0.5325 74.765 1 74 C1.66 74 2.32 74 3 74 C4.67128932 71.05618512 5.27731759 68.82616606 5.4140625 65.453125 C5.45273437 64.60878906 5.49140625 63.76445313 5.53125 62.89453125 C5.5621875 62.02183594 5.593125 61.14914063 5.625 60.25 C5.66367187 59.36183594 5.70234375 58.47367188 5.7421875 57.55859375 C5.83620873 55.3726002 5.92186143 53.18660938 6 51 C6.66 51 7.32 51 8 51 C8 45.06 8 39.12 8 33 C7.34 33 6.68 33 6 33 C6 31.35 6 29.7 6 28 C0.39 28 -5.22 28 -11 28 C-10.67 26.35 -10.34 24.7 -10 23 C-4.77487721 21.53329887 -0.4185766 20.77422598 5 21 C3.10709035 14.16061509 3.10709035 14.16061509 0.25 7.6875 C-1 5 -1 5 0 0 Z M41 18 C40.2575 18.61875 39.515 19.2375 38.75 19.875 C36.49929523 21.61418096 34.5093781 22.74531095 32 24 C31.67 24.66 31.34 25.32 31 26 C28.96875 26.37890625 28.96875 26.37890625 26.5 26.5625 C23.45018475 26.5792263 23.45018475 26.5792263 21 28 C20.79162581 29.82906235 20.63250341 31.66388134 20.5 33.5 C20.11111111 38.88888889 20.11111111 38.88888889 19 40 C18.92674832 42.86267567 18.90761795 45.700719 18.9375 48.5625 C18.94201172 49.36880859 18.94652344 50.17511719 18.95117188 51.00585938 C18.96299482 53.00393756 18.98093086 55.00197783 19 57 C20.32 57 21.64 57 23 57 C24.7887813 55.20222985 26.27787658 53.49530786 27.8125 51.5 C28.69329626 50.39916779 29.5748101 49.29890936 30.45703125 48.19921875 C30.88709473 47.65571777 31.3171582 47.1122168 31.76025391 46.55224609 C33.45681361 44.42803841 35.21710019 42.36451677 37 40.3125 C37.53625 39.68988281 38.0725 39.06726563 38.625 38.42578125 C40 37 40 37 42 36 C43.18681726 32.43954823 43.09689832 29.56191663 43.0625 25.8125 C43.05347656 24.54019531 43.04445313 23.26789063 43.03515625 21.95703125 C43.02355469 20.98121094 43.01195312 20.00539063 43 19 C42.34 18.67 41.68 18.34 41 18 Z " fill="#FBFBFB" transform="translate(451,61)"/>
<path d="M0 0 C1.60332791 -0.08121924 3.20784026 -0.13929134 4.8125 -0.1875 C6.15248047 -0.23970703 6.15248047 -0.23970703 7.51953125 -0.29296875 C10.54166216 0.06397585 10.91782208 0.91259048 13 3 C15.88855435 3.75881397 15.88855435 3.75881397 19.0625 4.125 C24.84924623 4.92462312 24.84924623 4.92462312 27 6 C29.54615009 6.23172827 32.07396225 6.41894529 34.625 6.5625 C35.33140625 6.60568359 36.0378125 6.64886719 36.765625 6.69335938 C38.51018537 6.79944751 40.25506697 6.90022889 42 7 C42 6.34 42 5.68 42 5 C46.62 5 51.24 5 56 5 C57.53266582 8.06533164 57.10276471 11.26754272 57.0625 14.625 C57.05798828 15.33140625 57.05347656 16.0378125 57.04882812 16.765625 C57.03703875 18.51045275 57.01910324 20.255237 57 22 C49.22542704 22.86384144 43.94683012 21.15080839 37.12133789 17.66577148 C28.66012138 13.6850573 22.27649234 14.14183248 12 13 C12 25.21 12 37.42 12 50 C21.84162766 50.61588482 21.84162766 50.61588482 31.68359375 51.22631836 C38.15188251 51.6373172 44.58113706 52.07227372 51 53 C51 53.66 51 54.32 51 55 C52.32 55.66 53.64 56.32 55 57 C54.125 61.75 54.125 61.75 53 64 C51.58430936 64.08167446 50.16723195 64.13949698 48.75 64.1875 C47.96109375 64.22230469 47.1721875 64.25710937 46.359375 64.29296875 C44 64 44 64 42.13671875 62.5625 C39.18998877 60.40767004 36.66818938 60.2551712 33.0625 59.8125 C32.40950928 59.73209473 31.75651855 59.65168945 31.08374023 59.56884766 C24.7246199 58.84836754 18.39384652 58.80592034 12 59 C11.7834375 60.7015625 11.7834375 60.7015625 11.5625 62.4375 C11 66 11 66 10 67 C9.43655256 69.85227019 8.91865055 72.69631608 8.4375 75.5625 C8.29892578 76.36880859 8.16035156 77.17511719 8.01757812 78.00585938 C7.67482237 80.00329811 7.33695612 82.00157472 7 84 C6.34 84 5.68 84 5 84 C4.90912109 85.04800781 4.90912109 85.04800781 4.81640625 86.1171875 C4.73261719 87.02726562 4.64882813 87.93734375 4.5625 88.875 C4.48128906 89.77992188 4.40007813 90.68484375 4.31640625 91.6171875 C4 94 4 94 3 96 C4.9490625 95.9690625 4.9490625 95.9690625 6.9375 95.9375 C8.29165633 95.91600546 9.64756083 95.92851801 11 96 C11.495 96.495 11.495 96.495 12 97 C13.47302586 97.21425831 14.95462147 97.37045055 16.4375 97.5 C17.33210937 97.5825 18.22671875 97.665 19.1484375 97.75 C20.08945312 97.8325 21.03046875 97.915 22 98 C23.8545287 98.16258882 25.70872366 98.32904656 27.5625 98.5 C28.38878906 98.5721875 29.21507812 98.644375 30.06640625 98.71875 C32 99 32 99 33 100 C34.66617115 100.04063832 36.33388095 100.042721 38 100 C38.66 98.68 39.32 97.36 40 96 C42.97 96 45.94 96 49 96 C53.93913043 103.7173913 53.93913043 103.7173913 53 109 C51.625 111.375 51.625 111.375 49 113 C42.70387441 113.8025582 36.25460809 112.80704621 30 112 C30 111.34 30 110.68 30 110 C29.09121094 110.01160156 28.18242188 110.02320313 27.24609375 110.03515625 C18.11096946 110.10074176 9.10778471 109.72345524 0 109 C-0.33 110.32 -0.66 111.64 -1 113 C-4.3 113 -7.6 113 -11 113 C-11 112.01 -11 111.02 -11 110 C-11.66 110 -12.32 110 -13 110 C-13 109.34 -13 108.68 -13 108 C-12.34 108 -11.68 108 -11 108 C-10.95101562 107.14277344 -10.90203125 106.28554687 -10.8515625 105.40234375 C-10.45465756 99.33243544 -10.00791601 93.75602589 -8 88 C-7.34 88 -6.68 88 -6 88 C-5.97494385 87.19594727 -5.9498877 86.39189453 -5.92407227 85.56347656 C-5.07171435 58.46583943 -5.07171435 58.46583943 -4.5 46.625 C-4.46463135 45.85575195 -4.4292627 45.08650391 -4.39282227 44.29394531 C-3.70106898 30.70106898 -3.70106898 30.70106898 -2 29 C-1.76346477 26.47403741 -1.57826308 23.96892793 -1.4375 21.4375 C-1.39431641 20.72658203 -1.35113281 20.01566406 -1.30664062 19.28320312 C-1.20028223 17.52238088 -1.09961154 15.7612168 -1 14 C-1.99 13.67 -2.98 13.34 -4 13 C-4.69937532 11.68352881 -5.36729133 10.34977849 -6 9 C-6.66 8.67 -7.32 8.34 -8 8 C-7.67 6.68 -7.34 5.36 -7 4 C-5.02 3.67 -3.04 3.34 -1 3 C-0.67 2.01 -0.34 1.02 0 0 Z " fill="#FAFAFA" transform="translate(982,80)"/>
<path d="M0 0 C1.60332791 -0.08121924 3.20784026 -0.13929134 4.8125 -0.1875 C6.15248047 -0.23970703 6.15248047 -0.23970703 7.51953125 -0.29296875 C10.54278879 0.06410891 10.91448934 0.91448934 13 3 C15.92274449 3.75818423 15.92274449 3.75818423 19.125 4.125 C24.91666667 4.91666667 24.91666667 4.91666667 26 6 C28.44904669 6.10044341 30.86374897 6.13874416 33.3125 6.125 C34.32860352 6.13080078 34.32860352 6.13080078 35.36523438 6.13671875 C38.75457891 6.13009247 41.74133215 5.89250138 45 5 C46.70565467 4.88575833 48.41557136 4.82525693 50.125 4.8125 C51.42824219 4.79123047 51.42824219 4.79123047 52.7578125 4.76953125 C55 5 55 5 57 7 C57.14497985 9.58064129 57.18677545 12.04943884 57.125 14.625 C57.11597656 15.33140625 57.10695313 16.0378125 57.09765625 16.765625 C57.07407603 18.51056098 57.03820461 20.25532295 57 22 C49.19685796 22.52507124 43.89146105 21.62845866 37 18 C30.56365125 15.0154028 25.30629697 13.86559296 18.1875 13.9375 C16.44533203 13.95103516 16.44533203 13.95103516 14.66796875 13.96484375 C13.78753906 13.97644531 12.90710938 13.98804687 12 14 C10.76517816 17.70446553 10.85441798 21.1443008 10.875 25 C10.87113281 25.72445312 10.86726562 26.44890625 10.86328125 27.1953125 C10.86918073 30.39282879 10.98194202 32.94582607 12 36 C12.06970052 38.39490986 12.08448003 40.79167691 12.0625 43.1875 C12.05347656 44.45980469 12.04445313 45.73210937 12.03515625 47.04296875 C12.02355469 48.01878906 12.01195312 48.99460938 12 50 C12.90242432 50.05534912 13.80484863 50.11069824 14.73461914 50.16772461 C18.10992862 50.37609311 21.48506085 50.58699189 24.86010742 50.79956055 C26.31577421 50.89073134 27.77150299 50.98091814 29.22729492 51.07006836 C31.33008966 51.19901672 33.43262967 51.3316025 35.53515625 51.46484375 C37.42826538 51.58267212 37.42826538 51.58267212 39.35961914 51.70288086 C51.12327796 52.66300243 51.12327796 52.66300243 54 56 C54.31900332 59.12623255 54.41441874 61.17116253 53 64 C51.58430936 64.08167446 50.16723195 64.13949698 48.75 64.1875 C47.96109375 64.22230469 47.1721875 64.25710937 46.359375 64.29296875 C44 64 44 64 42.1328125 62.5625 C34.78593213 57.18017006 19.67348181 58.75944118 11 59 C10.92483154 59.59425781 10.84966309 60.18851563 10.7722168 60.80078125 C10.42057578 63.53523536 10.05414139 66.26751837 9.6875 69 C9.56955078 69.93457031 9.45160156 70.86914062 9.33007812 71.83203125 C8.53744422 77.6446799 7.21791082 82.57319693 5 88 C4.56986373 89.49052568 4.16330612 90.98883519 3.8125 92.5 C3.544375 93.655 3.27625 94.81 3 96 C5.64 96 8.28 96 11 96 C11 96.66 11 97.32 11 98 C11.67804687 97.98839844 12.35609375 97.97679687 13.0546875 97.96484375 C21.16007313 97.88625968 29.06251501 98.26367516 37 100 C37.66 100 38.32 100 39 100 C39.495 98.02 39.495 98.02 40 96 C42.97 96 45.94 96 49 96 C53.93913043 103.7173913 53.93913043 103.7173913 53 109 C51.5625 111.375 51.5625 111.375 49 113 C42.78318084 113.89896978 36.19580104 112.72435252 30 112 C30 111.34 30 110.68 30 110 C29.09121094 110.01160156 28.18242188 110.02320313 27.24609375 110.03515625 C18.11096946 110.10074176 9.10778471 109.72345524 0 109 C-0.33 110.32 -0.66 111.64 -1 113 C-4.3 113 -7.6 113 -11 113 C-13.03684712 108.92630576 -13.0257259 106.41062136 -12 102 C-11.34 102 -10.68 102 -10 102 C-10.061875 100.4840625 -10.061875 100.4840625 -10.125 98.9375 C-9.99724648 94.91326415 -9.14577837 91.84172748 -8 88 C-7.57320005 85.33601787 -7.28261185 82.68481259 -7 80 C-6.34 80 -5.68 80 -5 80 C-5.00523682 79.40276123 -5.01047363 78.80552246 -5.01586914 78.19018555 C-5.09557361 67.63791959 -5.12398959 57.10294878 -4.5625 46.5625 C-4.52326416 45.81379639 -4.48402832 45.06509277 -4.44360352 44.29370117 C-4.24022992 40.83244653 -3.94327387 37.41643729 -3.4765625 33.98046875 C-2.93981345 29.89524007 -2.81641342 25.86691841 -2.8125 21.75 C-2.80025391 21.05648437 -2.78800781 20.36296875 -2.77539062 19.6484375 C-2.76476647 15.9512329 -2.80741877 13.05941567 -5 10 C-5.99 9.34 -6.98 8.68 -8 8 C-8 6.68 -8 5.36 -8 4 C-5.36 3.67 -2.72 3.34 0 3 C0 2.01 0 1.02 0 0 Z " fill="#FAFAFA" transform="translate(747,80)"/>
<path d="M0 0 C3.3 0 6.6 0 10 0 C10 0.66 10 1.32 10 2 C14.95 2.99 19.9 3.98 25 5 C25 5.66 25 6.32 25 7 C27.64624284 6.85978195 30.29184578 6.71310224 32.9375 6.5625 C33.69224609 6.52318359 34.44699219 6.48386719 35.22460938 6.44335938 C38.91944187 6.55961976 38.91944187 6.55961976 42 5 C44.14307896 4.87462259 46.29078886 4.82425636 48.4375 4.8125 C49.61183594 4.79832031 50.78617188 4.78414063 51.99609375 4.76953125 C55 5 55 5 57 7 C57.14497985 9.58064129 57.18677545 12.04943884 57.125 14.625 C57.11597656 15.33140625 57.10695313 16.0378125 57.09765625 16.765625 C57.07407603 18.51056098 57.03820461 20.25532295 57 22 C49.16572507 22.52716616 43.92536759 21.5701464 37 18 C31.4853975 15.28678844 26.66115107 14.34815912 20.5625 13.8125 C19.73556641 13.73064453 18.90863281 13.64878906 18.05664062 13.56445312 C16.03873118 13.36616145 14.01947588 13.18164598 12 13 C10.8633274 17.06639825 10.85262777 20.99270758 10.875 25.1875 C10.87113281 25.92419922 10.86726563 26.66089844 10.86328125 27.41992188 C10.53717913 31.0054406 10.53717913 31.0054406 12 34 C12.07319621 36.69654854 12.09242537 39.36691458 12.0625 42.0625 C12.05798828 42.82111328 12.05347656 43.57972656 12.04882812 44.36132812 C12.0370068 46.24091871 12.01907078 48.12046899 12 50 C12.90242432 50.05534912 13.80484863 50.11069824 14.73461914 50.16772461 C18.10992862 50.37609311 21.48506085 50.58699189 24.86010742 50.79956055 C26.31577421 50.89073134 27.77150299 50.98091814 29.22729492 51.07006836 C31.33008966 51.19901672 33.43262967 51.3316025 35.53515625 51.46484375 C37.42826538 51.58267212 37.42826538 51.58267212 39.35961914 51.70288086 C51.12327796 52.66300243 51.12327796 52.66300243 54 56 C54.31900332 59.12623255 54.41441874 61.17116253 53 64 C49.7 64 46.4 64 43 64 C43 63.34 43 62.68 43 62 C31.85583729 59.85541886 21.36312879 58.54748602 10 59 C9.97421875 60.00417969 9.9484375 61.00835937 9.921875 62.04296875 C9.57676426 71.3097046 8.04207831 79.18638972 5 88 C4.27253268 90.65666243 3.63095767 93.3184299 3 96 C4.9490625 95.9690625 4.9490625 95.9690625 6.9375 95.9375 C8.29165633 95.91600546 9.64756083 95.92851801 11 96 C11.495 96.495 11.495 96.495 12 97 C13.47302586 97.21425831 14.95462147 97.37045055 16.4375 97.5 C17.33210938 97.5825 18.22671875 97.665 19.1484375 97.75 C20.08945313 97.8325 21.03046875 97.915 22 98 C23.8545287 98.16258882 25.70872366 98.32904656 27.5625 98.5 C28.38878906 98.5721875 29.21507812 98.644375 30.06640625 98.71875 C32 99 32 99 33 100 C34.66617115 100.04063832 36.33388095 100.042721 38 100 C38.66 98.68 39.32 97.36 40 96 C42.97 96 45.94 96 49 96 C49 96.66 49 97.32 49 98 C49.66 98 50.32 98 51 98 C52.79511359 101.81461638 53.53797186 104.78588709 53 109 C51.625 111.375 51.625 111.375 49 113 C42.70387441 113.8025582 36.25460809 112.80704621 30 112 C30 111.34 30 110.68 30 110 C29.09121094 110.01160156 28.18242188 110.02320313 27.24609375 110.03515625 C18.11096946 110.10074176 9.10778471 109.72345524 0 109 C-0.33 110.32 -0.66 111.64 -1 113 C-4.3 113 -7.6 113 -11 113 C-13.03684712 108.92630576 -13.0257259 106.41062136 -12 102 C-11.34 102 -10.68 102 -10 102 C-10.061875 100.4840625 -10.061875 100.4840625 -10.125 98.9375 C-9.99669635 94.89593505 -9.21335398 91.84228759 -8 88 C-6.2937229 82.02500556 -5.62257623 76.50991143 -5.40234375 70.3125 C-5.34355797 68.95958862 -5.34355797 68.95958862 -5.28358459 67.5793457 C-5.16047394 64.71982578 -5.04833663 61.86001969 -4.9375 59 C-4.82135541 56.14009047 -4.70279981 53.28031601 -4.58070374 50.4206543 C-4.50559553 48.64884064 -4.43411173 46.87686816 -4.3669281 45.10473633 C-3.77742714 30.77742714 -3.77742714 30.77742714 -2 29 C-1.76346477 26.47403741 -1.57826308 23.96892793 -1.4375 21.4375 C-1.39431641 20.72658203 -1.35113281 20.01566406 -1.30664062 19.28320312 C-1.20028223 17.52238088 -1.09961154 15.7612168 -1 14 C-1.99 13.67 -2.98 13.34 -4 13 C-4.69937532 11.68352881 -5.36729133 10.34977849 -6 9 C-6.66 8.67 -7.32 8.34 -8 8 C-8 6.68 -8 5.36 -8 4 C-4.535 3.505 -4.535 3.505 -1 3 C-0.67 2.01 -0.34 1.02 0 0 Z " fill="#F9F9F9" transform="translate(1225,80)"/>
<path d="M0 0 C1.58206057 0.00667536 3.16410534 0.0186375 4.74609375 0.03515625 C5.55240234 0.03966797 6.35871094 0.04417969 7.18945312 0.04882812 C9.18753131 0.06065107 11.18557158 0.07858711 13.18359375 0.09765625 C12.61893275 4.12620406 12.0278846 8.11742797 11.18359375 12.09765625 C10.52359375 12.09765625 9.86359375 12.09765625 9.18359375 12.09765625 C9.19406738 13.03746338 9.20454102 13.97727051 9.21533203 14.94555664 C9.52271174 46.81771928 9.52271174 46.81771928 7.96972656 61.60400391 C6.69326265 74.0574766 6.51061311 86.5898305 6.18359375 99.09765625 C5.52359375 99.09765625 4.86359375 99.09765625 4.18359375 99.09765625 C4.05984375 100.02578125 3.93609375 100.95390625 3.80859375 101.91015625 C3.18359375 105.09765625 3.18359375 105.09765625 1.18359375 108.09765625 C0.52359375 108.09765625 -0.13640625 108.09765625 -0.81640625 108.09765625 C-1.31140625 109.58265625 -1.31140625 109.58265625 -1.81640625 111.09765625 C-7.88818168 113.19517867 -13.44414558 113.46544043 -19.81640625 113.09765625 C-20.50686035 113.06188477 -21.19731445 113.02611328 -21.90869141 112.98925781 C-37.68493851 112.07246212 -37.68493851 112.07246212 -42.00390625 108.59765625 C-43.4375 106.98046875 -43.4375 106.98046875 -44.81640625 105.09765625 C-45.42613281 104.37320313 -46.03585937 103.64875 -46.6640625 102.90234375 C-53.42121456 94.27205919 -54.96125047 84.90132022 -55.60546875 74.1796875 C-55.5935386 72.10978023 -55.5935386 72.10978023 -56.81640625 71.09765625 C-56.904316 68.80614208 -56.92334663 66.51193101 -56.9140625 64.21875 C-56.91264755 63.53208755 -56.9112326 62.84542511 -56.90977478 62.13795471 C-56.90416104 59.93697824 -56.89160632 57.73610216 -56.87890625 55.53515625 C-56.87389301 54.04622542 -56.8693298 52.55729301 -56.86523438 51.06835938 C-56.85418718 47.4114255 -56.83691338 43.75455067 -56.81640625 40.09765625 C-56.15640625 40.09765625 -55.49640625 40.09765625 -54.81640625 40.09765625 C-54.81640625 33.49765625 -54.81640625 26.89765625 -54.81640625 20.09765625 C-51.84640625 20.09765625 -48.87640625 20.09765625 -45.81640625 20.09765625 C-45.15640625 21.41765625 -44.49640625 22.73765625 -43.81640625 24.09765625 C-41.78281145 25.36570191 -41.78281145 25.36570191 -39.81640625 26.09765625 C-39.61450536 32.45753429 -40.18862295 37.94986754 -41.81640625 44.09765625 C-42.47640625 44.09765625 -43.13640625 44.09765625 -43.81640625 44.09765625 C-43.81640625 51.68765625 -43.81640625 59.27765625 -43.81640625 67.09765625 C-43.15640625 67.09765625 -42.49640625 67.09765625 -41.81640625 67.09765625 C-41.15640625 75.01765625 -40.49640625 82.93765625 -39.81640625 91.09765625 C-38.33140625 91.59265625 -38.33140625 91.59265625 -36.81640625 92.09765625 C-36.52765625 92.71640625 -36.23890625 93.33515625 -35.94140625 93.97265625 C-34.46279291 96.76559256 -32.50446258 97.54141311 -29.81640625 99.09765625 C-29.81640625 99.75765625 -29.81640625 100.41765625 -29.81640625 101.09765625 C-22.21476739 102.35864523 -22.21476739 102.35864523 -14.81640625 101.09765625 C-13.45620474 99.13007352 -13.45620474 99.13007352 -12.81640625 97.09765625 C-12.15640625 97.09765625 -11.49640625 97.09765625 -10.81640625 97.09765625 C-9.08463595 90.25464156 -8.48287518 83.54358149 -8.24633789 76.51586914 C-8.09176876 72.79526321 -7.68454833 69.41061804 -6.79296875 65.79296875 C-5.02848103 57.50657706 -5.60866129 48.89859157 -5.69140625 40.47265625 C-5.70145522 38.68750502 -5.71057768 36.90234831 -5.71875 35.1171875 C-5.74061375 30.77720694 -5.7750381 26.43749293 -5.81640625 22.09765625 C-6.47640625 22.09765625 -7.13640625 22.09765625 -7.81640625 22.09765625 C-7.81640625 19.45765625 -7.81640625 16.81765625 -7.81640625 14.09765625 C-7.15640625 14.09765625 -6.49640625 14.09765625 -5.81640625 14.09765625 C-5.72552734 12.70740234 -5.72552734 12.70740234 -5.6328125 11.2890625 C-5.54902344 10.09152344 -5.46523438 8.89398438 -5.37890625 7.66015625 C-5.29769531 6.46519531 -5.21648438 5.27023438 -5.1328125 4.0390625 C-4.66046741 -0.3519974 -4.61069159 0.11798085 0 0 Z " fill="#FAFAFA" transform="translate(952.81640625,81.90234375)"/>
<path d="M0 0 C2.3125 -0.3984375 2.3125 -0.3984375 5 -0.375 C6.3303125 -0.38660156 6.3303125 -0.38660156 7.6875 -0.3984375 C8.8321875 -0.20121094 8.8321875 -0.20121094 10 0 C10.66 0.99 11.32 1.98 12 3 C15.07574255 3.76842933 15.07574255 3.76842933 18.5625 4.125 C24.91864831 4.91864831 24.91864831 4.91864831 26 6 C28.52596259 6.23653523 31.03107207 6.42173692 33.5625 6.5625 C34.27341797 6.60568359 34.98433594 6.64886719 35.71679688 6.69335938 C37.47761912 6.79971777 39.2387832 6.90038846 41 7 C41 6.34 41 5.68 41 5 C45.62 5 50.24 5 55 5 C56.53266582 8.06533164 56.10276471 11.26754272 56.0625 14.625 C56.05798828 15.33140625 56.05347656 16.0378125 56.04882812 16.765625 C56.03703875 18.51045275 56.01910324 20.255237 56 22 C48.52833887 22.56154447 43.61177909 21.35640399 37 18 C31.33676458 15.18946133 26.33206644 14.33328596 20.0625 13.8125 C15.5765625 13.4103125 15.5765625 13.4103125 11 13 C11 25.21 11 37.42 11 50 C20.84162766 50.61588482 20.84162766 50.61588482 30.68359375 51.22631836 C37.15188251 51.6373172 43.58113706 52.07227372 50 53 C50 53.66 50 54.32 50 55 C50.99 55 51.98 55 53 55 C53.625 58.375 53.625 58.375 54 62 C51.58513057 64.41486943 50.87292211 64.2961925 47.5625 64.3125 C46.38880859 64.33763672 46.38880859 64.33763672 45.19140625 64.36328125 C43 64 43 64 41.640625 62.5546875 C39.11409035 60.16049514 36.59354923 60.22978561 33.1875 59.8125 C32.53257568 59.73209473 31.87765137 59.65168945 31.20288086 59.56884766 C24.45022773 58.81037698 17.79551701 58.85988625 11 59 C10.34 62.96 9.68 66.92 9 71 C7.35 71 5.7 71 4 71 C3.67 73.64 3.34 76.28 3 79 C3.99 79 4.98 79 6 79 C5.58411954 85.19518473 4.39748106 90.26689311 2 96 C3.9490625 95.9690625 3.9490625 95.9690625 5.9375 95.9375 C7.29165633 95.91600546 8.64756083 95.92851801 10 96 C10.495 96.495 10.495 96.495 11 97 C12.47302586 97.21425831 13.95462147 97.37045055 15.4375 97.5 C16.33210937 97.5825 17.22671875 97.665 18.1484375 97.75 C19.08945312 97.8325 20.03046875 97.915 21 98 C22.8545287 98.16258882 24.70872366 98.32904656 26.5625 98.5 C27.38878906 98.5721875 28.21507812 98.644375 29.06640625 98.71875 C31 99 31 99 32 100 C34.41537838 100.41717279 34.41537838 100.41717279 37 100 C37.61875 99.01 37.61875 99.01 38.25 98 C40 96 40 96 42.18359375 95.734375 C44.46706597 95.74862444 46.72323958 95.82816902 49 96 C49.66 98.31 50.32 100.62 51 103 C51.66 103 52.32 103 53 103 C53.30719041 106.37909451 53.34529892 108.40357459 51.625 111.375 C45.59309594 115.10903585 36.73275207 112.96182172 30 112 C29.67 111.67 29.34 111.34 29 111 C26.85770616 110.77067714 24.70859857 110.60445445 22.55859375 110.46484375 C21.25341797 110.37783203 19.94824219 110.29082031 18.60351562 110.20117188 C17.21485003 110.11318209 15.82617806 110.02529278 14.4375 109.9375 C13.04489407 109.8461259 11.65231546 109.75433447 10.25976562 109.66210938 C6.84009122 109.43728649 3.42019221 109.21677941 0 109 C0 109.99 0 110.98 0 112 C-2.52475462 113.26237731 -4.31200466 113.09856404 -7.125 113.0625 C-8.49011719 113.04896484 -8.49011719 113.04896484 -9.8828125 113.03515625 C-10.93082031 113.01775391 -10.93082031 113.01775391 -12 113 C-13.13673517 108.77897638 -12.79839993 105.47303491 -12.0625 101.1875 C-11.86785156 100.02605469 -11.67320312 98.86460937 -11.47265625 97.66796875 C-11.31667969 96.78753906 -11.16070312 95.90710938 -11 95 C-9.515 94.505 -9.515 94.505 -8 94 C-7.77961336 90.05389223 -7.55949736 86.10776973 -7.33984375 82.16162109 C-7.15476325 78.83766421 -6.9684125 75.51378167 -6.78125 72.18994141 C-6.20523422 61.96239693 -6.20523422 61.96239693 -5.71484375 51.73046875 C-5.15962021 39.06579561 -5.15962021 39.06579561 -3.9375 33.75 C-2.46052079 27.29673699 -0.97260952 17.89230717 -4.12109375 11.84765625 C-5.62681055 10.12377611 -5.62681055 10.12377611 -8 8 C-8 6.68 -8 5.36 -8 4 C-7.05125 3.896875 -6.1025 3.79375 -5.125 3.6875 C-1.70892499 3.31460705 -1.70892499 3.31460705 0 0 Z " fill="#FAFAFA" transform="translate(521,80)"/>
<path d="M0 0 C0.78890625 0.04640625 1.5778125 0.0928125 2.390625 0.140625 C3.18984375 0.17671875 3.9890625 0.2128125 4.8125 0.25 C5.71742187 0.31960937 5.71742187 0.31960937 6.640625 0.390625 C6.58003906 1.02226563 6.51945312 1.65390625 6.45703125 2.3046875 C5.82338833 9.07004419 5.33383181 15.83461289 4.921875 22.6171875 C4.640625 25.390625 4.640625 25.390625 3.640625 26.390625 C3.40869635 27.90531948 3.22847262 29.42817062 3.078125 30.953125 C2.8615625 33.1496875 2.8615625 33.1496875 2.640625 35.390625 C-0.329375 35.390625 -3.299375 35.390625 -6.359375 35.390625 C-8.07405641 31.96126219 -7.70791616 28.02616769 -7.8828125 24.23828125 C-8.41137941 21.07987733 -8.961007 20.36957396 -11.359375 18.390625 C-12.019375 17.400625 -12.679375 16.410625 -13.359375 15.390625 C-18.05090606 12.99886406 -22.07319728 11.93003089 -27.359375 11.390625 C-27.359375 12.050625 -27.359375 12.710625 -27.359375 13.390625 C-33.984375 16.390625 -33.984375 16.390625 -37.359375 16.390625 C-37.689375 17.380625 -38.019375 18.370625 -38.359375 19.390625 C-39.67584619 20.09000032 -41.00959651 20.75791633 -42.359375 21.390625 C-42.689375 22.050625 -43.019375 22.710625 -43.359375 23.390625 C-44.01421875 23.65617187 -44.6690625 23.92171875 -45.34375 24.1953125 C-47.59278878 25.23615811 -47.59278878 25.23615811 -48.1875 27.7734375 C-48.32671875 28.67835937 -48.4659375 29.58328125 -48.609375 30.515625 C-48.75890625 31.42570312 -48.9084375 32.33578125 -49.0625 33.2734375 C-49.16046875 33.97210938 -49.2584375 34.67078125 -49.359375 35.390625 C-50.019375 35.390625 -50.679375 35.390625 -51.359375 35.390625 C-51.41797357 38.74471694 -51.45317082 42.09867517 -51.484375 45.453125 C-51.50113281 46.39607422 -51.51789063 47.33902344 -51.53515625 48.31054688 C-51.57291151 53.72842693 -51.15426344 58.21331142 -49.359375 63.390625 C-49.11316406 64.25429687 -48.86695313 65.11796875 -48.61328125 66.0078125 C-48.38511719 66.75289063 -48.15695312 67.49796875 -47.921875 68.265625 C-47.58349609 69.40644531 -47.58349609 69.40644531 -47.23828125 70.5703125 C-46.94824219 71.17101562 -46.65820312 71.77171875 -46.359375 72.390625 C-44.874375 72.885625 -44.874375 72.885625 -43.359375 73.390625 C-42.671875 75.453125 -42.671875 75.453125 -42.359375 77.390625 C-41.4003125 77.57625 -41.4003125 77.57625 -40.421875 77.765625 C-39.74125 77.971875 -39.060625 78.178125 -38.359375 78.390625 C-37.864375 79.380625 -37.864375 79.380625 -37.359375 80.390625 C-29.52348211 83.98707097 -22.03991956 86.29068146 -13.359375 85.390625 C-13.070625 84.6275 -12.781875 83.864375 -12.484375 83.078125 C-11.359375 80.390625 -11.359375 80.390625 -9.359375 77.390625 C-8.59258025 74.8299783 -7.88703053 72.29199192 -7.234375 69.703125 C-7.05261719 69.00123047 -6.87085938 68.29933594 -6.68359375 67.57617188 C-6.23710421 65.84896232 -5.7975584 64.11996044 -5.359375 62.390625 C-1.04318197 61.48723576 1.14860114 61.49222023 5.640625 62.390625 C5.310625 66.020625 4.980625 69.650625 4.640625 73.390625 C3.980625 73.390625 3.320625 73.390625 2.640625 73.390625 C2.681875 74.525 2.723125 75.659375 2.765625 76.828125 C2.74440891 82.81106214 2.01941151 88.23052614 -1.234375 93.328125 C-5.91473055 97.87082303 -10.08618259 97.68008343 -16.43383789 97.62231445 C-25.32801157 97.44556645 -33.17186771 95.77855905 -41.359375 92.390625 C-42.32875 92.04 -43.298125 91.689375 -44.296875 91.328125 C-46.359375 90.390625 -46.359375 90.390625 -47.359375 88.390625 C-48.205 87.895625 -49.050625 87.400625 -49.921875 86.890625 C-50.72625 86.395625 -51.530625 85.900625 -52.359375 85.390625 C-52.359375 84.730625 -52.359375 84.070625 -52.359375 83.390625 C-52.99875 83.16375 -53.638125 82.936875 -54.296875 82.703125 C-56.359375 81.390625 -56.359375 81.390625 -57.109375 78.765625 C-57.191875 77.981875 -57.274375 77.198125 -57.359375 76.390625 C-58.019375 76.390625 -58.679375 76.390625 -59.359375 76.390625 C-63.90682487 67.92295972 -66.89877927 60.09990188 -66.359375 50.390625 C-67.019375 50.390625 -67.679375 50.390625 -68.359375 50.390625 C-68.359375 46.100625 -68.359375 41.810625 -68.359375 37.390625 C-67.699375 37.390625 -67.039375 37.390625 -66.359375 37.390625 C-66.33359375 36.79894531 -66.3078125 36.20726562 -66.28125 35.59765625 C-65.89619579 30.23315098 -65.15739789 27.41883109 -61.359375 23.390625 C-61.05902344 22.74867187 -60.75867187 22.10671875 -60.44921875 21.4453125 C-59.2131503 19.1149469 -57.91451352 17.96091514 -55.859375 16.328125 C-53.42272588 14.38190314 -52.13675379 13.05669318 -50.359375 10.390625 C-47.4415698 8.96913016 -45.62733203 8.390625 -42.359375 8.390625 C-42.359375 7.730625 -42.359375 7.070625 -42.359375 6.390625 C-36.69342471 3.89094105 -31.60128305 3.20118632 -25.4453125 3.65234375 C-24.35476563 3.71873047 -23.26421875 3.78511719 -22.140625 3.85351562 C-19.8612163 4.00382067 -17.58252224 4.1653667 -15.3046875 4.33789062 C-14.21671875 4.40041016 -13.12875 4.46292969 -12.0078125 4.52734375 C-11.01958496 4.59655029 -10.03135742 4.66575684 -9.01318359 4.73706055 C-4.80489207 4.18769848 -3.97569557 0.65822774 0 0 Z " fill="#FAFAFA" transform="translate(1203.359375,87.609375)"/>
<path d="M0 0 C-0.144375 1.134375 -0.28875 2.26875 -0.4375 3.4375 C-0.72785847 5.72004021 -0.99985407 7.99847299 -1.21875 10.2890625 C-1.6803215 15.08610921 -2.53392585 19.40630101 -4 24 C-5.32 24 -6.64 24 -8 24 C-7.87625 25.299375 -7.7525 26.59875 -7.625 27.9375 C-7.52058594 29.03384766 -7.52058594 29.03384766 -7.4140625 30.15234375 C-7.20910156 31.06693359 -7.20910156 31.06693359 -7 32 C-6.34 32.33 -5.68 32.66 -5 33 C-5 33.66 -5 34.32 -5 35 C-7.64 35 -10.28 35 -13 35 C-15.10428384 29.87080814 -15.21755666 25.4389165 -15 20 C-15.63035156 19.69964844 -16.26070313 19.39929688 -16.91015625 19.08984375 C-19.0845803 17.95589177 -20.27841381 16.72158619 -22 15 C-26.26460094 11.83201073 -29.83180302 11.43798279 -35 11 C-35 11.66 -35 12.32 -35 13 C-35.61488281 13.13277344 -36.22976563 13.26554687 -36.86328125 13.40234375 C-38.07564453 13.66724609 -38.07564453 13.66724609 -39.3125 13.9375 C-40.11300781 14.11152344 -40.91351563 14.28554687 -41.73828125 14.46484375 C-44.145401 14.99886159 -44.145401 14.99886159 -47 16 C-47.309375 16.78375 -47.61875 17.5675 -47.9375 18.375 C-49.15165758 21.37468342 -50.2512455 22.36792702 -53 24 C-53.66 24 -54.32 24 -55 24 C-55.2165625 25.7015625 -55.2165625 25.7015625 -55.4375 27.4375 C-56 31 -56 31 -57 32 C-58.33877449 38.60025184 -58.1120803 45.22890439 -58.0625 51.9375 C-58.05798828 53.09830078 -58.05347656 54.25910156 -58.04882812 55.45507812 C-58.03710647 58.30343934 -58.0206976 61.15169222 -58 64 C-57.34 64 -56.68 64 -56 64 C-55.01 66.97 -54.02 69.94 -53 73 C-52.34 73 -51.68 73 -51 73 C-48.375 75.375 -48.375 75.375 -46 78 C-46 78.66 -46 79.32 -46 80 C-42.37 80.99 -38.74 81.98 -35 83 C-35 83.66 -35 84.32 -35 85 C-30.05 85 -25.1 85 -20 85 C-19.566875 83.68 -19.13375 82.36 -18.6875 81 C-17.44031796 77.25257096 -16.1005213 73.55380331 -14.6953125 69.86328125 C-13.72584383 67.26532308 -12.85697853 64.63685703 -12 62 C-8.33694766 61.25073929 -5.57644848 60.7619986 -2 62 C-1.8374476 66.6327433 -1.89528379 70.37335136 -3.375 74.8125 C-4.57679323 79.01877629 -5.18572014 83.38693127 -5.92578125 87.6953125 C-7.20555724 91.63236883 -8.83258443 93.38364766 -12 96 C-23.25116765 99.75038922 -38.42165212 96.87543306 -49 92 C-56.51002394 88.22232196 -56.51002394 88.22232196 -59 85 C-59 84.34 -59 83.68 -59 83 C-59.639375 82.7525 -60.27875 82.505 -60.9375 82.25 C-63 81 -63 81 -63.75 78.875 C-63.8325 78.25625 -63.915 77.6375 -64 77 C-64.66 77 -65.32 77 -66 77 C-68.03435531 73.27034861 -69 71.33094958 -69 67 C-69.66 67 -70.32 67 -71 67 C-73.4768698 59.31455699 -74.4715185 52.3717949 -74.375 44.3125 C-74.38660156 43.33216797 -74.39820313 42.35183594 -74.41015625 41.34179688 C-74.38547109 35.19930505 -73.51562038 30.61023275 -71 25 C-70.34 25 -69.68 25 -69 25 C-68.690625 24.21625 -68.38125 23.4325 -68.0625 22.625 C-67 20 -67 20 -66 18 C-65.34 18 -64.68 18 -64 18 C-63.731875 17.360625 -63.46375 16.72125 -63.1875 16.0625 C-62 14 -62 14 -59 13 C-59 12.34 -59 11.68 -59 11 C-53.375 8 -53.375 8 -50 8 C-50 7.34 -50 6.68 -50 6 C-39.48109081 2.34931975 -27.98033464 2.05118704 -17.13671875 4.69921875 C-16.43160156 4.79847656 -15.72648437 4.89773437 -15 5 C-13.57070548 3.73312532 -12.14414468 2.46218685 -10.7578125 1.1484375 C-7.48678705 -0.98863246 -3.75338356 -0.37533836 0 0 Z " fill="#FBFBFB" transform="translate(372,88)"/>
<path d="M0 0 C1.093125 0.00257812 2.18625 0.00515625 3.3125 0.0078125 C4.405625 0.00523438 5.49875 0.00265625 6.625 0 C9.3125 0.1328125 9.3125 0.1328125 10.3125 1.1328125 C10.35313832 2.79898365 10.355221 4.46669345 10.3125 6.1328125 C9.3225 6.1328125 8.3325 6.1328125 7.3125 6.1328125 C7.3125 6.7928125 7.3125 7.4528125 7.3125 8.1328125 C4.0125 8.1328125 0.7125 8.1328125 -2.6875 8.1328125 C-3.06813221 5.8067268 -3.40019945 3.47225986 -3.6875 1.1328125 C-2.6875 0.1328125 -2.6875 0.1328125 0 0 Z " fill="#F4F4F4" transform="translate(477.6875,92.8671875)"/>
<path d="M0 0 C0 0.66 0 1.32 0 2 C-0.99 2.33 -1.98 2.66 -3 3 C-1.51886719 3.07347656 -1.51886719 3.07347656 -0.0078125 3.1484375 C1.91417969 3.26058594 1.91417969 3.26058594 3.875 3.375 C5.15117187 3.44460937 6.42734375 3.51421875 7.7421875 3.5859375 C11 4 11 4 13 6 C13 7.32 13 8.64 13 10 C12.34 10 11.68 10 11 10 C11 8.68 11 7.36 11 6 C3.74 6 -3.52 6 -11 6 C-10.67 4.35 -10.34 2.7 -10 1 C-6.52674819 -0.1577506 -3.63932552 -0.06866652 0 0 Z " fill="#EDEEED" transform="translate(451,83)"/>
<path d="M0 0 C1.60332791 -0.08121924 3.20784026 -0.13929134 4.8125 -0.1875 C6.15248047 -0.23970703 6.15248047 -0.23970703 7.51953125 -0.29296875 C10.46633225 0.05507861 11.11816611 0.80452713 13 3 C15.10332891 3.71447643 15.10332891 3.71447643 17 4 C17 4.66 17 5.32 17 6 C10.375 5.25 10.375 5.25 7 3 C6.401875 3.474375 5.80375 3.94875 5.1875 4.4375 C3 6 3 6 0 7 C0.33 7.99 0.66 8.98 1 10 C0.01 9.67 -0.98 9.34 -2 9 C-2.75 7.0625 -2.75 7.0625 -3 5 C-2.67 4.34 -2.34 3.68 -2 3 C-1.34 3 -0.68 3 0 3 C0 2.01 0 1.02 0 0 Z " fill="#F6F6F6" transform="translate(747,80)"/>
<path d="M0 0 C1.60332791 -0.08121924 3.20784026 -0.13929134 4.8125 -0.1875 C6.15248047 -0.23970703 6.15248047 -0.23970703 7.51953125 -0.29296875 C10.47638733 0.05626622 11.08932515 0.82271936 13 3 C15.60611077 3.72197162 15.60611077 3.72197162 18 4 C18 4.66 18 5.32 18 6 C13.22423661 5.5317879 9.95523655 4.75668002 6 2 C5.67 2.99 5.34 3.98 5 5 C2.4375 6.1875 2.4375 6.1875 0 7 C0 7.99 0 8.98 0 10 C-0.99 9.01 -1.98 8.02 -3 7 C-2.690625 6.401875 -2.38125 5.80375 -2.0625 5.1875 C-0.89790296 2.91043228 -0.89790296 2.91043228 0 0 Z " fill="#F3F3F3" transform="translate(982,80)"/>
<path d="M0 0 C0 3.52032428 -0.70351351 4.4385343 -3 7 C-3.66 7 -4.32 7 -5 7 C-5.26167969 7.59941406 -5.52335937 8.19882813 -5.79296875 8.81640625 C-7.07220188 11.13061764 -8.26250442 12.29659445 -10.3125 13.9375 C-12.61867268 15.82262871 -14.61563505 17.64426923 -16.6875 19.8125 C-18.9259386 21.92994192 -19.99392803 22.665992 -23 23 C-23 24.98 -23 26.96 -23 29 C-23.33 29 -23.66 29 -24 29 C-24.5625 25.9375 -24.5625 25.9375 -24 22 C-22.09457319 20.0710494 -20.01326421 18.64753649 -17.7890625 17.09765625 C-14.43214866 14.57291853 -11.56136432 11.74338546 -8.625 8.75 C-8.11356445 8.23026611 -7.60212891 7.71053223 -7.07519531 7.17504883 C-5.71376748 5.78632928 -4.35668559 4.39335277 -3 3 C-2.00210747 1.99789696 -1.00340713 0.99658123 0 0 Z " fill="#F1F2F1" transform="translate(494,111)"/>
<path d="M0 0 C7.26 0 14.52 0 22 0 C22.33 0.66 22.66 1.32 23 2 C12.605 2.495 12.605 2.495 2 3 C1.67 5.64 1.34 8.28 1 11 C0.34 11 -0.32 11 -1 11 C-1.0270043 9.54176788 -1.04639787 8.08339325 -1.0625 6.625 C-1.07410156 5.81289062 -1.08570313 5.00078125 -1.09765625 4.1640625 C-1 2 -1 2 0 0 Z " fill="#EDEEED" transform="translate(530,136)"/>
<path d="M0 0 C0 0.66 0 1.32 0 2 C-0.62648438 2.02578125 -1.25296875 2.0515625 -1.8984375 2.078125 C-2.71570313 2.13484375 -3.53296875 2.1915625 -4.375 2.25 C-5.18710937 2.29640625 -5.99921875 2.3428125 -6.8359375 2.390625 C-9.15767356 2.77824632 -9.15767356 2.77824632 -10.1328125 4.875 C-10.41898438 5.57625 -10.70515625 6.2775 -11 7 C-13.5 9.75 -13.5 9.75 -16 12 C-16.66 12 -17.32 12 -18 12 C-18.2165625 12.928125 -18.2165625 12.928125 -18.4375 13.875 C-19 16 -19 16 -20 18 C-20.66 18 -21.32 18 -22 18 C-21.62520509 11.81588398 -17.38006106 8.19697944 -13.0703125 4.21875 C-8.57226865 0.50830138 -5.82060535 -0.72757567 0 0 Z " fill="#F0F1F0" transform="translate(673,48)"/>
<path d="M0 0 C0.99 0 1.98 0 3 0 C3.33 0.99 3.66 1.98 4 3 C2.68 3.33 1.36 3.66 0 4 C0 2.68 0 1.36 0 0 Z M4 0 C7.3 0 10.6 0 14 0 C15.32229189 2.64458379 15.09677194 4.67761301 15.0625 7.625 C15.05347656 8.62789062 15.04445313 9.63078125 15.03515625 10.6640625 C15.02355469 11.43492188 15.01195312 12.20578125 15 13 C14.34 13 13.68 13 13 13 C13 9.7 13 6.4 13 3 C10.03 2.67 7.06 2.34 4 2 C4 1.34 4 0.68 4 0 Z " fill="#F2F2F2" transform="translate(562,85)"/>
<path d="M0 0 C0.66 0 1.32 0 2 0 C3.50156874 3.00313748 3.09281204 5.79067522 3.0625 9.125 C3.05347656 10.40632813 3.04445313 11.68765625 3.03515625 13.0078125 C3.02355469 13.99523437 3.01195312 14.98265625 3 16 C3.66 16 4.32 16 5 16 C5 16.66 5 17.32 5 18 C1.125 17.125 1.125 17.125 0 16 C-0.07319621 13.30345146 -0.09242537 10.63308542 -0.0625 7.9375 C-0.05798828 7.17888672 -0.05347656 6.42027344 -0.04882812 5.63867188 C-0.0370068 3.75908129 -0.01907078 1.87953101 0 0 Z " fill="#EFEFEF" transform="translate(756,114)"/>
<path d="M0 0 C1.20366211 0.00966797 1.20366211 0.00966797 2.43164062 0.01953125 C3.26501953 0.03628906 4.09839844 0.05304688 4.95703125 0.0703125 C6.22450195 0.08384766 6.22450195 0.08384766 7.51757812 0.09765625 C9.60168368 0.12120547 11.68564342 0.15707603 13.76953125 0.1953125 C13.76953125 0.8553125 13.76953125 1.5153125 13.76953125 2.1953125 C12.50496094 2.22109375 11.24039063 2.246875 9.9375 2.2734375 C8.27730907 2.32971516 6.61715415 2.38706257 4.95703125 2.4453125 C4.12365234 2.45949219 3.29027344 2.47367188 2.43164062 2.48828125 C-2.42324002 2.52228113 -2.42324002 2.52228113 -6.1796875 5.2421875 C-6.52644531 5.88671875 -6.87320313 6.53125 -7.23046875 7.1953125 C-7.89046875 7.1953125 -8.55046875 7.1953125 -9.23046875 7.1953125 C-7.46396716 2.03169246 -5.59513007 -0.07936355 0 0 Z " fill="#F2F2F1" transform="translate(152.23046875,201.8046875)"/>
<path d="M0 0 C2.31305485 2.31305485 2.94362503 3.91917664 3.11352539 7.17651367 C3.10567017 8.40978394 3.10567017 8.40978394 3.09765625 9.66796875 C3.09282227 11.00698242 3.09282227 11.00698242 3.08789062 12.37304688 C3.07951172 13.30181641 3.07113281 14.23058594 3.0625 15.1875 C3.05798828 16.12787109 3.05347656 17.06824219 3.04882812 18.03710938 C3.03704626 20.35813712 3.02059558 22.67903644 3 25 C2.34 25 1.68 25 1 25 C0.67 16.75 0.34 8.5 0 0 Z " fill="#EBEBEB" transform="translate(959,103)"/>
<path d="M0 0 C0 0.66 0 1.32 0 2 C-0.99 2 -1.98 2 -3 2 C-3 2.66 -3 3.32 -3 4 C-9.625 7 -9.625 7 -13 7 C-13.33 7.99 -13.66 8.98 -14 10 C-16.4375 11.75 -16.4375 11.75 -19 13 C-19.66 12.67 -20.32 12.34 -21 12 C-16.20855502 6.6096244 -7.36464067 0 0 0 Z " fill="#F2F2F2" transform="translate(1179,97)"/>
<path d="M0 0 C0.33 0.99 0.66 1.98 1 3 C-6.59 3 -14.18 3 -22 3 C-21.67 2.34 -21.34 1.68 -21 1 C-18.25008168 0.83188272 -15.50007888 0.6654519 -12.75 0.5 C-11.97269531 0.45230469 -11.19539062 0.40460937 -10.39453125 0.35546875 C-9.26337891 0.28779297 -9.26337891 0.28779297 -8.109375 0.21875 C-7.41811523 0.17685547 -6.72685547 0.13496094 -6.01464844 0.09179688 C-4.01161035 0.00052902 -2.0051163 0 0 0 Z " fill="#ECECEB" transform="translate(201,45)"/>
<path d="M0 0 C2.97 0.495 2.97 0.495 6 1 C6 1.66 6 2.32 6 3 C9.63 3.33 13.26 3.66 17 4 C16.67 4.66 16.34 5.32 16 6 C5.81481481 6.40740741 5.81481481 6.40740741 1 4 C0.125 1.875 0.125 1.875 0 0 Z " fill="#F4F4F4" transform="translate(329,178)"/>
<path d="M0 0 C2.97 0.33 5.94 0.66 9 1 C8.01 1.33 7.02 1.66 6 2 C5.67 2.99 5.34 3.98 5 5 C2.4375 6.1875 2.4375 6.1875 0 7 C0 7.99 0 8.98 0 10 C-0.99 9.01 -1.98 8.02 -3 7 C-2.690625 6.401875 -2.38125 5.80375 -2.0625 5.1875 C-0.89790296 2.91043228 -0.89790296 2.91043228 0 0 Z " fill="#F3F4F3" transform="translate(1225,80)"/>
<path d="M0 0 C0.8971875 0.309375 0.8971875 0.309375 1.8125 0.625 C0.2115869 1.77537471 -1.39335225 2.92014816 -3 4.0625 C-4.33998047 5.01962891 -4.33998047 5.01962891 -5.70703125 5.99609375 C-8.1875 7.625 -8.1875 7.625 -11.1875 8.625 C-12.1775 10.11 -12.1775 10.11 -13.1875 11.625 C-15.8125 11.8125 -15.8125 11.8125 -18.1875 11.625 C-18.1875 10.965 -18.1875 10.305 -18.1875 9.625 C-17.589375 9.521875 -16.99125 9.41875 -16.375 9.3125 C-13.81079239 8.50660618 -13.03726258 7.5459073 -11.1875 5.625 C-9.20674973 4.26323419 -7.20670337 2.92906884 -5.1875 1.625 C-2.1875 -0.375 -2.1875 -0.375 0 0 Z " fill="#F1F1F1" transform="translate(495.1875,76.375)"/>
<path d="M0 0 C5.94 0 11.88 0 18 0 C17.67 0.66 17.34 1.32 17 2 C11.72 2 6.44 2 1 2 C1 2.99 1 3.98 1 5 C-0.98 5 -2.96 5 -5 5 C-3.68 4.67 -2.36 4.34 -1 4 C-0.67 2.68 -0.34 1.36 0 0 Z " fill="#E8E8E8" transform="translate(520,187)"/>
<path d="M0 0 C0.33 0 0.66 0 1 0 C1.3125 2.6875 1.3125 2.6875 1 6 C-1.55024365 9.10164769 -3.17699247 10.72566416 -7 12 C-8.72795352 12.06802967 -10.45835365 12.08495645 -12.1875 12.0625 C-13.53908203 12.04896484 -13.53908203 12.04896484 -14.91796875 12.03515625 C-15.60503906 12.02355469 -16.29210937 12.01195312 -17 12 C-17 11.34 -17 10.68 -17 10 C-16.00419922 9.96132812 -16.00419922 9.96132812 -14.98828125 9.921875 C-9.52652846 9.57104708 -5.8216592 9.2993666 -2 5 C-0.66701026 2.38181544 -0.66701026 2.38181544 0 0 Z " fill="#EFF0EF" transform="translate(364,173)"/>
<path d="M0 0 C1.2065625 0.0309375 1.2065625 0.0309375 2.4375 0.0625 C2.7675 1.0525 3.0975 2.0425 3.4375 3.0625 C2.4475 3.0625 1.4575 3.0625 0.4375 3.0625 C0.4375 4.0525 0.4375 5.0425 0.4375 6.0625 C2.7475 6.3925 5.0575 6.7225 7.4375 7.0625 C7.4375 7.3925 7.4375 7.7225 7.4375 8.0625 C4.1375 8.0625 0.8375 8.0625 -2.5625 8.0625 C-2.94313221 5.7364143 -3.27519945 3.40194736 -3.5625 1.0625 C-2.5625 0.0625 -2.5625 0.0625 0 0 Z " fill="#FCFCFC" transform="translate(477.5625,92.9375)"/>
<path d="M0 0 C2.01822917 0.06510417 4.03645833 0.13020833 6.0546875 0.1953125 C6.0546875 0.8553125 6.0546875 1.5153125 6.0546875 2.1953125 C4.0746875 2.5253125 2.0946875 2.8553125 0.0546875 3.1953125 C-0.2753125 5.5053125 -0.6053125 7.8153125 -0.9453125 10.1953125 C-1.9353125 9.8653125 -2.9253125 9.5353125 -3.9453125 9.1953125 C-4.0703125 5.8203125 -4.0703125 5.8203125 -3.9453125 2.1953125 C-1.9453125 0.1953125 -1.9453125 0.1953125 0 0 Z " fill="#F0F1F0" transform="translate(993.9453125,135.8046875)"/>
<path d="M0 0 C2.475 0.495 2.475 0.495 5 1 C5 1.66 5 2.32 5 3 C7.97 3.33 10.94 3.66 14 4 C14 4.66 14 5.32 14 6 C4.87743733 6.62674095 4.87743733 6.62674095 1.375 4.125 C0 2 0 2 0 0 Z " fill="#F4F4F4" transform="translate(789,96)"/>
<path d="M0 0 C0 0.66 0 1.32 0 2 C-0.66 2 -1.32 2 -2 2 C-2 2.66 -2 3.32 -2 4 C-2.79664063 4.38091797 -2.79664063 4.38091797 -3.609375 4.76953125 C-7.36117635 6.59750746 -10.68323605 8.44864311 -14 11 C-14.66 11 -15.32 11 -16 11 C-15.34 9.68 -14.68 8.36 -14 7 C-13.01 7 -12.02 7 -11 7 C-11 6.34 -11 5.68 -11 5 C-9.54462432 4.16151196 -8.08559627 3.32936066 -6.625 2.5 C-5.40683594 1.80390625 -5.40683594 1.80390625 -4.1640625 1.09375 C-2 0 -2 0 0 0 Z " fill="#F3F3F3" transform="translate(1067,183)"/>
<path d="M0 0 C5.61 0 11.22 0 17 0 C16.67 0.66 16.34 1.32 16 2 C12.9453125 2.4140625 12.9453125 2.4140625 9.125 2.625 C7.86945312 2.69976562 6.61390625 2.77453125 5.3203125 2.8515625 C3.21506346 2.94567952 1.10735178 3 -1 3 C-0.67 2.01 -0.34 1.02 0 0 Z " fill="#EBEBEB" transform="translate(757,91)"/>
<path d="M0 0 C0.66 0 1.32 0 2 0 C2 4.95 2 9.9 2 15 C2.66 15 3.32 15 4 15 C4 15.66 4 16.32 4 17 C2.68 16.67 1.36 16.34 0 16 C0 10.72 0 5.44 0 0 Z " fill="#EAEAEA" transform="translate(992,115)"/>
<path d="M0 0 C0.66 0 1.32 0 2 0 C1.73497804 3.79864807 1.19602849 5.74055052 -1.125 8.8125 C-4.49863166 11.37939366 -6.81766696 11.75398041 -11 12 C-11 11.34 -11 10.68 -11 10 C-9.02 9.67 -7.04 9.34 -5 9 C-5 8.34 -5 7.68 -5 7 C-4.34 7 -3.68 7 -3 7 C-3 6.34 -3 5.68 -3 5 C-2.34 5 -1.68 5 -1 5 C-0.67 3.35 -0.34 1.7 0 0 Z " fill="#F3F3F3" transform="translate(291,187)"/>
<path d="M0 0 C0.66 0 1.32 0 2 0 C1.125 6.875 1.125 6.875 0 8 C-1.51928038 8.07179964 -3.04167482 8.08392007 -4.5625 8.0625 C-5.38878906 8.05347656 -6.21507812 8.04445312 -7.06640625 8.03515625 C-7.70449219 8.02355469 -8.34257813 8.01195312 -9 8 C-9 7.01 -9 6.02 -9 5 C-6.36 5.33 -3.72 5.66 -1 6 C-0.67 4.02 -0.34 2.04 0 0 Z " fill="#F0F1F1" transform="translate(1135,186)"/>
<path d="M0 0 C1.670625 0.061875 1.670625 0.061875 3.375 0.125 C3.705 0.785 4.035 1.445 4.375 2.125 C2.065 2.455 -0.245 2.785 -2.625 3.125 C-2.955 5.435 -3.285 7.745 -3.625 10.125 C-4.285 10.125 -4.945 10.125 -5.625 10.125 C-5.8203125 4.0703125 -5.8203125 4.0703125 -5.625 2.125 C-3.625 0.125 -3.625 0.125 0 0 Z " fill="#EDEEED" transform="translate(760.625,135.875)"/>
<path d="M0 0 C4.95 0 9.9 0 15 0 C13 2 13 2 10.1796875 2.1953125 C9.08914063 2.17210938 7.99859375 2.14890625 6.875 2.125 C5.77929688 2.10695313 4.68359375 2.08890625 3.5546875 2.0703125 C2.29011719 2.03550781 2.29011719 2.03550781 1 2 C1 2.66 1 3.32 1 4 C0.34 4 -0.32 4 -1 4 C-0.67 2.68 -0.34 1.36 0 0 Z " fill="#E9EAE9" transform="translate(531,91)"/>
<path d="M0 0 C2.0337489 1.83037401 3.33738085 3.53515583 4.8125 5.875 C6.6165415 8.45220214 7.87011212 9.85728917 10.25 11.75 C11.1575 12.4925 12.065 13.235 13 14 C13 14.66 13 15.32 13 16 C8.00237116 13.74336143 3.37304249 10.09384246 1.10546875 4.984375 C0.5625 3.0625 0.5625 3.0625 0 0 Z " fill="#EFEFEF" transform="translate(310,160)"/>
<path d="M0 0 C0.99 0.33 1.98 0.66 3 1 C3.51385563 3.82620599 3.34138082 5.49003606 1.734375 7.890625 C0.21930562 9.6998826 -1.24435875 11.42174219 -3 13 C-3.66 13 -4.32 13 -5 13 C-3.79135813 9.56001929 -2.61442808 7.50075729 0 5 C0.33 4.01 0.66 3.02 1 2 C0.34 1.67 -0.32 1.34 -1 1 C-0.67 0.67 -0.34 0.34 0 0 Z " fill="#F0F0F0" transform="translate(291,97)"/>
<path d="M0 0 C0.99 0.33 1.98 0.66 3 1 C2.21625 1.4125 1.4325 1.825 0.625 2.25 C-2.08846586 3.73877757 -2.08846586 3.73877757 -3 6.0625 C-4 8 -4 8 -6.625 9.25 C-7.40875 9.4975 -8.1925 9.745 -9 10 C-7.24277009 5.68679932 -4.1937832 2.0968916 0 0 Z " fill="#F4F4F4" transform="translate(257,94)"/>
<path d="M0 0 C0 0.66 0 1.32 0 2 C-3.63 3.32 -7.26 4.64 -11 6 C-11.33 5.34 -11.66 4.68 -12 4 C-7.99899414 0.12023674 -5.51903037 -0.43286513 0 0 Z " fill="#F3F3F3" transform="translate(1126,73)"/>
<path d="M0 0 C0.66 0 1.32 0 2 0 C2.99 3.3 3.98 6.6 5 10 C5.66 10 6.32 10 7 10 C7 11.65 7 13.3 7 15 C6.34 13.68 5.68 12.36 5 11 C4.34 11 3.68 11 3 11 C2.49384702 9.73160474 1.99530901 8.46016898 1.5 7.1875 C1.2215625 6.47980469 0.943125 5.77210938 0.65625 5.04296875 C0 3 0 3 0 0 Z " fill="#F2F2F2" transform="translate(1128,170)"/>
<path d="M0 0 C4.96432365 -0.29201904 8.03701574 -0.14707573 12 3 C12.33 3.99 12.66 4.98 13 6 C11.68 5.67 10.36 5.34 9 5 C9 4.34 9 3.68 9 3 C6.03 2.67 3.06 2.34 0 2 C0 1.34 0 0.68 0 0 Z " fill="#F2F3F3" transform="translate(652,193)"/>
<path d="M0 0 C4.75207471 -0.43200679 7.78210698 1.01510917 12 3 C12 3.66 12 4.32 12 5 C5.375 4.25 5.375 4.25 2 2 C0.02 2.99 0.02 2.99 -2 4 C-1.34 2.68 -0.68 1.36 0 0 Z " fill="#EFEFEF" transform="translate(752,81)"/>
<path d="M0 0 C4 2 4 2 5.875 3.0625 C8.54074552 4.2385642 11.12431827 4.60786158 14 5 C14 5.66 14 6.32 14 7 C11.03 6.67 8.06 6.34 5 6 C5 5.34 5 4.68 5 4 C2.525 3.01 2.525 3.01 0 2 C0 1.34 0 0.68 0 0 Z " fill="#F0F0F0" transform="translate(832,182)"/>
<path d="M0 0 C3 1 3 1 3 1 Z M0 1 C0 1.66 0 2.32 0 3 C-1.97133986 4.37535339 -3.97681922 5.70211044 -6 7 C-7.68083079 8.31543279 -9.3524116 9.64316249 -11 11 C-10.43601004 7.49411644 -9.33036227 6.01017608 -6.625 3.75 C-6.01914062 3.22921875 -5.41328125 2.7084375 -4.7890625 2.171875 C-3 1 -3 1 0 1 Z " fill="#F0F0F0" transform="translate(823,100)"/>
<path d="M0 0 C-0.66 1.65 -1.32 3.3 -2 5 C-3.65 5 -5.3 5 -7 5 C-6.67 3.35 -6.34 1.7 -6 0 C-3 -1 -3 -1 0 0 Z " fill="#FCFCFC" transform="translate(447,84)"/>
<path d="M0 0 C1.23512958 2.91939719 0.98072075 4.05670368 -0.0625 7.125 C-2.39414359 10.58485823 -4.00377939 11.11195098 -8 12 C-6.87952194 8.63856582 -5.50292817 7.42471166 -3 5 C-2.67 4.34 -2.34 3.68 -2 3 C-1.34 3 -0.68 3 0 3 C0 2.01 0 1.02 0 0 Z " fill="#F4F4F4" transform="translate(719,192)"/>
<path d="M0 0 C0 0.66 0 1.32 0 2 C-0.78375 2.185625 -1.5675 2.37125 -2.375 2.5625 C-5.39121002 3.82740532 -5.39121002 3.82740532 -6.1875 7.5625 C-6.455625 8.696875 -6.72375 9.83125 -7 11 C-7.99 11.495 -7.99 11.495 -9 12 C-8.76083941 5.90140505 -8.76083941 5.90140505 -6.66796875 3.421875 C-2.62661638 0 -2.62661638 0 0 0 Z " fill="#F1F1F1" transform="translate(826,105)"/>
<path d="M0 0 C1.62600941 0.0870005 3.25089678 0.1951781 4.875 0.3125 C5.77992188 0.37050781 6.68484375 0.42851563 7.6171875 0.48828125 C10 1 10 1 12 4 C7.71 3.34 3.42 2.68 -1 2 C-0.67 1.34 -0.34 0.68 0 0 Z " fill="#F1F1F1" transform="translate(346,92)"/>
<path d="M0 0 C0.99 0.33 1.98 0.66 3 1 C3.69658363 2.65438613 4.36096883 4.32254318 5 6 C6.52007842 7.77277259 6.52007842 7.77277259 8 9 C7.67 9.99 7.34 10.98 7 12 C6.34 10.68 5.68 9.36 5 8 C4.34 8 3.68 8 3 8 C0 2.25 0 2.25 0 0 Z " fill="#F3F3F3" transform="translate(1094,124)"/>
<path d="M0 0 C1.9375 0.3125 1.9375 0.3125 4 1 C4.33 1.99 4.66 2.98 5 4 C7.00016466 5.20882096 7.00016466 5.20882096 9 6 C9 6.99 9 7.98 9 9 C8.34 9 7.68 9 7 9 C6.195625 8.01 5.39125 7.02 4.5625 6 C3.716875 5.01 2.87125 4.02 2 3 C1.01 3 0.02 3 -1 3 C-0.67 2.01 -0.34 1.02 0 0 Z " fill="#EFEFEF" transform="translate(904,102)"/>
<path d="M0 0 C0.66 0.33 1.32 0.66 2 1 C1.50769231 7.4 1.50769231 7.4 -1.0625 10.4375 C-2.0215625 11.2109375 -2.0215625 11.2109375 -3 12 C-3.66 11.67 -4.32 11.34 -5 11 C-4.54625 10.484375 -4.0925 9.96875 -3.625 9.4375 C-1.61799617 6.42699426 -0.87268191 3.49072763 0 0 Z " fill="#F2F2F2" transform="translate(1203,170)"/>
<path d="M0 0 C0.66 0 1.32 0 2 0 C2.0825 0.5775 2.165 1.155 2.25 1.75 C3.2026631 4.60798931 4.86053074 5.92954588 7 8 C7 8.66 7 9.32 7 10 C5.68 9.34 4.36 8.68 3 8 C3 7.34 3 6.68 3 6 C2.01 5.67 1.02 5.34 0 5 C-0.75 3 -0.75 3 -1 1 C-0.67 0.67 -0.34 0.34 0 0 Z " fill="#F3F3F3" transform="translate(872,166)"/>
<path d="M0 0 C0.66 0 1.32 0 2 0 C2 1.65 2 3.3 2 5 C-1.3 5 -4.6 5 -8 5 C-8 4.34 -8 3.68 -8 3 C-5.36 3 -2.72 3 0 3 C0 2.01 0 1.02 0 0 Z " fill="#ECECEC" transform="translate(419,138)"/>
<path d="M0 0 C0.66 0.33 1.32 0.66 2 1 C2 1.66 2 2.32 2 3 C-0.64 3.33 -3.28 3.66 -6 4 C-6.33 4.99 -6.66 5.98 -7 7 C-7.66 7 -8.32 7 -9 7 C-8.4375 5.1875 -8.4375 5.1875 -7 3 C-3.5 1.1875 -3.5 1.1875 0 0 Z " fill="#F2F2F2" transform="translate(475,172)"/>
<path d="M0 0 C1 2 1 2 0.125 4.8125 C-0.24625 5.864375 -0.6175 6.91625 -1 8 C-1.36106097 9.66088045 -1.70462173 11.32618981 -2 13 C-2.99 13 -3.98 13 -5 13 C-4.125 8.25 -4.125 8.25 -3 6 C-2.34 6 -1.68 6 -1 6 C-1.020625 5.195625 -1.04125 4.39125 -1.0625 3.5625 C-1 1 -1 1 0 0 Z " fill="#F1F2F1" transform="translate(1051,182)"/>
<path d="M0 0 C0.66 0 1.32 0 2 0 C1.1875 3.4375 1.1875 3.4375 0 7 C-0.99 7.33 -1.98 7.66 -3 8 C-3 8.66 -3 9.32 -3 10 C-3.99 9.67 -4.98 9.34 -6 9 C-5.071875 7.88625 -5.071875 7.88625 -4.125 6.75 C-2.39562719 4.51198812 -1.13893339 2.56260013 0 0 Z " fill="#F3F3F3" transform="translate(955,182)"/>
<path d="M0 0 C2 0 2 0 4.125 1.875 C6 4 6 4 6 6 C6.99 6.33 7.98 6.66 9 7 C8.67 7.66 8.34 8.32 8 9 C6.68 8.34 5.36 7.68 4 7 C4 6.34 4 5.68 4 5 C3.01 4.67 2.02 4.34 1 4 C0.3125 1.9375 0.3125 1.9375 0 0 Z " fill="#F1F2F1" transform="translate(827,167)"/>
<path d="M0 0 C2.99220268 1.36370299 5.29026529 2.94908083 7.75 5.125 C8.67039062 5.93324219 8.67039062 5.93324219 9.609375 6.7578125 C10.06828125 7.16773438 10.5271875 7.57765625 11 8 C10.01 8.495 10.01 8.495 9 9 C7.49428343 7.88266271 5.99555708 6.75589965 4.5 5.625 C3.6646875 4.99851563 2.829375 4.37203125 1.96875 3.7265625 C1.3190625 3.15679687 0.669375 2.58703125 0 2 C0 1.34 0 0.68 0 0 Z " fill="#F1F1F1" transform="translate(1153,168)"/>
<path d="M0 0 C0.66 0 1.32 0 2 0 C2 0.66 2 1.32 2 2 C4.64 2 7.28 2 10 2 C10 2.66 10 3.32 10 4 C7.03 4 4.06 4 1 4 C0.67 2.68 0.34 1.36 0 0 Z " fill="#F2F2F2" transform="translate(426,139)"/>
<path d="M0 0 C0.33 0.99 0.66 1.98 1 3 C-0.8125 5.6875 -0.8125 5.6875 -3 8 C-3.66 8 -4.32 8 -5 8 C-5 8.66 -5 9.32 -5 10 C-5.99 9.67 -6.98 9.34 -8 9 C-7.50628906 8.51789063 -7.01257813 8.03578125 -6.50390625 7.5390625 C-5.86324219 6.90742187 -5.22257812 6.27578125 -4.5625 5.625 C-3.92441406 4.99851562 -3.28632813 4.37203125 -2.62890625 3.7265625 C-0.92117824 2.08276939 -0.92117824 2.08276939 0 0 Z " fill="#F1F2F1" transform="translate(504,101)"/>
<path d="M0 0 C3.5371438 0.56132934 4.99261679 1.69557747 7.25 4.4375 C8.03117187 5.36369141 8.03117187 5.36369141 8.828125 6.30859375 C10 8 10 8 10 10 C9.34 10 8.68 10 8 10 C6.64721885 8.01310269 5.31431695 6.01254782 4 4 C3.34 3.67 2.68 3.34 2 3 C2 2.34 2 1.68 2 1 C1.34 0.67 0.68 0.34 0 0 Z " fill="#F0F0F0" transform="translate(353,100)"/>
<path d="M0 0 C0.66 0 1.32 0 2 0 C2 0.99 2 1.98 2 3 C2.66 3 3.32 3 4 3 C4.66 4.98 5.32 6.96 6 9 C5.01 9 4.02 9 3 9 C0 3.375 0 3.375 0 0 Z " fill="#F3F3F3" transform="translate(312,149)"/>
<path d="M0 0 C0.66 0 1.32 0 2 0 C1.375 2.4375 1.375 2.4375 0 5 C-3.125 5.8125 -3.125 5.8125 -6 6 C-6 5.34 -6 4.68 -6 4 C-4.36368108 2.95107762 -2.69514137 1.95093297 -1 1 C-0.67 0.67 -0.34 0.34 0 0 Z " fill="#F2F2F2" transform="translate(1276,187)"/>
<path d="M0 0 C0 0.99 0 1.98 0 3 C-0.66 3 -1.32 3 -2 3 C-2 2.34 -2 1.68 -2 1 C-2.99 1 -3.98 1 -5 1 C-5.33 1.99 -5.66 2.98 -6 4 C-6.66 3.67 -7.32 3.34 -8 3 C-7.67 2.01 -7.34 1.02 -7 0 C-4.3333581 -1.33332095 -2.83319697 -0.67102033 0 0 Z " fill="#F0F0F0" transform="translate(797,178)"/>
<path d="M0 0 C3.36179774 1.44077046 5.59156268 3.24750021 8 6 C8 6.66 8 7.32 8 8 C6.68 7.34 5.36 6.68 4 6 C4 5.34 4 4.68 4 4 C3.01 3.67 2.02 3.34 1 3 C0.67 2.01 0.34 1.02 0 0 Z " fill="#F0F0F0" transform="translate(281,134)"/>
<path d="M0 0 C3.76607955 1.25535985 4.26441793 2.52883585 6 6 C6 6.99 6 7.98 6 9 C5.34 9 4.68 9 4 9 C0 2.25 0 2.25 0 0 Z " fill="#F4F4F4" transform="translate(720,130)"/>
<path d="M0 0 C0.66 0.33 1.32 0.66 2 1 C1.71872579 2.48117801 1.42466268 3.95993249 1.125 5.4375 C0.96257813 6.26121094 0.80015625 7.08492188 0.6328125 7.93359375 C0.42398438 8.61550781 0.21515625 9.29742187 0 10 C-0.99 10.495 -0.99 10.495 -2 11 C-1.125 3.375 -1.125 3.375 0 0 Z " fill="#EFF0EF" transform="translate(911,114)"/>
<path d="M0 0 C0.66 0 1.32 0 2 0 C0.84826645 2.46800047 -0.04783565 4.04783565 -2 6 C-3.32 6 -4.64 6 -6 6 C-6 5.34 -6 4.68 -6 4 C-4.36368108 2.95107762 -2.69514137 1.95093297 -1 1 C-0.67 0.67 -0.34 0.34 0 0 Z " fill="#F2F2F2" transform="translate(798,187)"/>
<path d="M0 0 C0.66 0 1.32 0 2 0 C1.01 2.97 0.02 5.94 -1 9 C-1.66 9 -2.32 9 -3 9 C-2.44271087 5.65626525 -1.64826111 2.96687001 0 0 Z " fill="#F2F2F2" transform="translate(639,145)"/>
<path d="M0 0 C3 1 3 1 4.1875 3.375 C5 6 5 6 5 9 C4.34 9 3.68 9 3 9 C2.01 6.03 1.02 3.06 0 0 Z " fill="#F3F3F3" transform="translate(290,144)"/>
<path d="M0 0 C2.64 0 5.28 0 8 0 C8 0.66 8 1.32 8 2 C6.02 2 4.04 2 2 2 C2 2.66 2 3.32 2 4 C1.34 4 0.68 4 0 4 C0 2.68 0 1.36 0 0 Z " fill="#ECECEC" transform="translate(1048,77)"/>
<path d="M0 0 C0.99 0 1.98 0 3 0 C3.33 1.32 3.66 2.64 4 4 C4.66 4 5.32 4 6 4 C5.34 5.32 4.68 6.64 4 8 C3.34 7.67 2.68 7.34 2 7 C2 6.01 2 5.02 2 4 C1.05021103 1.84971696 1.05021103 1.84971696 0 0 Z " fill="#F4F4F4" transform="translate(217,195)"/>
<path d="M0 0 C1.32 0 2.64 0 4 0 C4 0.66 4 1.32 4 2 C3.01 2 2.02 2 1 2 C1 2.99 1 3.98 1 5 C-0.98 5 -2.96 5 -5 5 C-3.68 4.67 -2.36 4.34 -1 4 C-0.67 2.68 -0.34 1.36 0 0 Z " fill="#F0F0F0" transform="translate(520,187)"/>
<path d="M0 0 C3.75376152 1.25125384 4.24073289 2.5652404 6 6 C6 6.66 6 7.32 6 8 C5.01 7.67 4.02 7.34 3 7 C3 6.01 3 5.02 3 4 C2.34 4 1.68 4 1 4 C0.67 2.68 0.34 1.36 0 0 Z " fill="#F4F4F4" transform="translate(438,173)"/>
<path d="M0 0 C3.96 0 7.92 0 12 0 C11.67 0.99 11.34 1.98 11 3 C10.484375 2.855625 9.96875 2.71125 9.4375 2.5625 C6.31490429 1.84190099 3.17449308 1.42733561 0 1 C0 0.67 0 0.34 0 0 Z " fill="#EAEBEA" transform="translate(260,138)"/>
<path d="M0 0 C1.9375 0.8125 1.9375 0.8125 4 2 C4.33 2.99 4.66 3.98 5 5 C5.66 5 6.32 5 7 5 C6.67 5.99 6.34 6.98 6 8 C4.99403703 7.0479279 3.99538437 6.08812654 3 5.125 C2.443125 4.59132813 1.88625 4.05765625 1.3125 3.5078125 C0 2 0 2 0 0 Z " fill="#F1F1F1" transform="translate(1084,111)"/>
<path d="M0 0 C3 1 3 1 4.75 3.4375 C5.36875 4.7059375 5.36875 4.7059375 6 6 C5.67 6.66 5.34 7.32 5 8 C2.20127563 5.47211993 0.54226981 3.79588866 0 0 Z " fill="#F4F4F4" transform="translate(913,173)"/>
<path d="M0 0 C1.98 0.66 3.96 1.32 6 2 C6.33 3.65 6.66 5.3 7 7 C6.01 6.34 5.02 5.68 4 5 C4 4.34 4 3.68 4 3 C2.68 2.67 1.36 2.34 0 2 C0 1.34 0 0.68 0 0 Z " fill="#F4F4F4" transform="translate(858,154)"/>
<path d="M0 0 C2.31 0.66 4.62 1.32 7 2 C7.33 3.32 7.66 4.64 8 6 C5.36 4.68 2.72 3.36 0 2 C0 1.34 0 0.68 0 0 Z " fill="#F2F2F2" transform="translate(843,145)"/>
<path d="M0 0 C3.87132028 0.57352893 6.08172796 2.48704352 9 5 C8.67 5.66 8.34 6.32 8 7 C7.608125 6.54625 7.21625 6.0925 6.8125 5.625 C4.69167513 3.72357081 2.66957765 2.93795972 0 2 C0 1.34 0 0.68 0 0 Z " fill="#F0F0F0" transform="translate(852,101)"/>
<path d="M0 0 C2.31 0.33 4.62 0.66 7 1 C7 2.32 7 3.64 7 5 C6.67 4.34 6.34 3.68 6 3 C2.97065509 2.34227572 2.97065509 2.34227572 0 2 C0 1.34 0 0.68 0 0 Z " fill="#F3F3F3" transform="translate(270,88)"/>
<path d="M0 0 C0.99 0.33 1.98 0.66 3 1 C4.1875 4.5625 4.1875 4.5625 5 8 C4.34 8 3.68 8 3 8 C0 2.25 0 2.25 0 0 Z " fill="#F3F3F3" transform="translate(241,179)"/>
<path d="M0 0 C1.0625 1.8125 1.0625 1.8125 2 4 C1.67 4.99 1.34 5.98 1 7 C0.34 7 -0.32 7 -1 7 C-1.33 7.99 -1.66 8.98 -2 10 C-1.54177532 6.53058454 -1.10868317 3.32604951 0 0 Z " fill="#F2F2F2" transform="translate(988,157)"/>
<path d="M0 0 C2 1 4 2 6 3 C5.67 4.32 5.34 5.64 5 7 C4.67 6.01 4.34 5.02 4 4 C1.99983534 2.79117904 1.99983534 2.79117904 0 2 C0 1.34 0 0.68 0 0 Z " fill="#F2F2F3" transform="translate(822,125)"/>
</svg>
